<?xml version="1.0" encoding="utf-8"?>
<!-- Generator: Adobe Illustrator 19.2.1, SVG Export Plug-In . SVG Version: 6.00 Build 0)  -->
<svg version="1.1" id="Layer_1" xmlns="http://www.w3.org/2000/svg" xmlns:xlink="http://www.w3.org/1999/xlink" x="0px" y="0px"
	 viewBox="0 0 524 172" style="enable-background:new 0 0 524 172;" xml:space="preserve">
<style type="text/css">
	.st0{fill:#31A6B8;}
	.st1{fill:none;stroke:#FEEC6E;stroke-width:2;stroke-miterlimit:10;}
</style>
<rect class="st0" width="524" height="86.9"/>
<rect y="85.2" class="st0" width="459.9" height="86.8"/>
<g>
	<g>
		<g id="char-a_1_14_">
			<g>
				<path class="st1" d="M23.9,53.7c-0.3,2.3-0.8,5.7,1.6,5.7c4.1,0,6.8-7.1,6.8-7.1"/>
				<path class="st1" d="M23.9,53.7c-0.8,3.7-3.3,6.3-6.2,5.7s-4.6-4.2-3.7-7.9c0.8-3.7,2.8-6.2,6.7-5.7S24.7,49.9,23.9,53.7z"/>
			</g>
		</g>
	</g>
	<g>
		<g id="char-s_1_11_">
			<path class="st1" d="M49.6,52.2c0,0,0.8-2.6,3.7-5.1c4.1-3.7,7-7.9,5-7.9c-1.9,0,1.2,6.8,2.4,10c1.2,3,1.6,9.7-4.3,10.2
				s-5.5-5.5-4.5-6.5c2-2,5,5.6,9.6,5.5c4.4-0.1,6.8-6.2,6.8-6.2"/>
		</g>
		<g id="char-u_1_7_">
			<g>
				<path class="st1" d="M78.2,53.8c-0.3,2.3-0.8,5.7,1.6,5.7c4.1,0,6.8-7.1,6.8-7.1"/>
				<path class="st1" d="M70,45.6c0,0-0.8,2.1-1.5,5.4c-0.6,2.6-1,7.8,3.7,8.4c2.9,0.3,5.4-2.3,6.2-6.1l1.9-7.7"/>
			</g>
		</g>
		<g id="char-m_1_4_">
			<g>
				<path class="st1" d="M84.8,59.4c0,0,2.8-10.2,4.1-15"/>
				<path class="st1" d="M87.7,48.6c0,0,2.4-4.1,6-2.8c2.2,0.8,1.8,3.7,1.5,5"/>
				<path class="st1" d="M110.5,52.3c0,0-2.6,7.1-6.8,7.1c-2.4,0-2.1-3.5-1.6-5.6s2.4-6.8-1-8.1c-2.9-1.1-5.2,1.9-5.6,3.4
					c-0.3,1.5-1.1,4.2-1.1,4.2"/>
			</g>
		</g>
		<g id="char-m_1_3_">
			<g>
				<path class="st1" d="M108.4,59.4c0,0,2.8-10.2,4.1-15"/>
				<path class="st1" d="M111.3,48.6c0,0,2.4-4.1,6-2.8c2.2,0.8,1.8,3.7,1.5,5"/>
				<path class="st1" d="M134.1,52.3c0,0-2.6,7.1-6.8,7.1c-2.4,0-2.1-3.5-1.6-5.6s2.4-6.8-1-8.1c-2.9-1.1-5.2,1.9-5.6,3.4
					c-0.3,1.5-1.1,4.2-1.1,4.2"/>
			</g>
		</g>
		<g id="char-i_1_13_">
			<g>
				<path class="st1" d="M136,43.9l0.6-2.4"/>
				<path class="st1" d="M141.9,52.3c0,0-2.6,7.1-6.8,7.1c-2.4,0-2.2-2.7-1.6-5.6c0.1-0.8,1-4.1,2-8.2"/>
			</g>
		</g>
		<g id="char-t_1_13_">
			<g>
				<path class="st1" d="M150,52.3c0,0-2.6,7.1-6.8,7.1c-2.4,0-2.2-2.7-1.6-5.6c0.6-2.9,9.1-35.9,9.1-35.9"/>
				<path class="st1" d="M150.3,43.1h-12.4"/>
			</g>
		</g>
	</g>
	<g>
		<g id="char-o_1_12_">
			<path class="st1" d="M184.2,48.3c0,0-2.3,2.8-6.3,2.3c-1.8-0.2-5.9-1.8-6.4-3.5c-0.4-1.5,1.9-1.7,3.2-1.5c2.5,0.6,4,1.7,3,8
				c-0.6,3.8-3.4,6.3-6.3,5.7c-2.9-0.6-4.5-4.8-3.6-8.4c0.6-2.2,1.5-3.4,1.5-3.4"/>
		</g>
		<g id="char-n_1_10_">
			<g>
				<path class="st1" d="M181.7,59.4c1.2-4.3,2.7-10,3.9-14.8"/>
				<path class="st1" d="M184.7,48.4c0,0,3.5-3.9,6.4-2.8c3.4,1.2,1.5,5.9,1,8.1c-0.5,2.1-0.8,5.6,1.6,5.6c4.1,0,6.8-7.1,6.8-7.1"/>
			</g>
		</g>
	</g>
	<g>
		<g id="char-t_1_12_">
			<g>
				<path class="st1" d="M225.8,52.3c0,0-2.6,7.1-6.8,7.1c-2.4,0-2.2-2.7-1.6-5.6c0.6-2.9,9.1-35.9,9.1-35.9"/>
				<path class="st1" d="M226.1,43.1h-12.4"/>
			</g>
		</g>
		<g id="char-h_1_7_">
			<g>
				<path class="st1" d="M224.1,59.4c4.6-16.9,10.5-41.5,10.5-41.5"/>
				<path class="st1" d="M227.1,48.4c0,0,3.5-3.8,6.4-2.8c3.4,1.2,1.5,5.9,1,8.1c-0.5,2.1-0.8,5.7,1.6,5.7c4.1,0,6.8-7.3,6.8-7.3"/>
			</g>
		</g>
		<g id="char-e_1_12_">
			<path class="st1" d="M258,52.3c-1.7,4.4-8.7,10.3-13.5,4.7c-1.9-2.2-1.7-3.6-1.1-6.4c0.6-2.4,1.9-5.3,4.8-5.3c1.5,0,3,1,3.2,2.5
				c0.2,1.1-0.4,2.3-1.3,3c-0.9,0.8-1.9,1.2-3,1.6c-1.5,0.5-2.8,0.5-3.9,1.7"/>
		</g>
	</g>
	<g>
		<g id="char-d_1_2_">
			<g>
				<g>
					<g>
						<path class="st1" d="M285.4,59.1"/>
					</g>
				</g>
				<path class="st1" d="M285.4,54.1c-0.8,3.7-3.2,5.8-6.1,5.2c-2.8-0.6-4.6-4.2-3.7-7.9c0.8-3.7,2.8-6.2,6.7-5.7
					c1,0.1,1.8,0.5,2.3,1"/>
				<path class="st1" d="M293.8,52.3c0,0-2.6,7.1-6.8,7.1c-2.4,0-2.2-2.7-1.6-5.6c0.6-3,9.1-35.9,9.1-35.9"/>
				<g>
					<g>
						<path class="st1" d="M285.9,59.1"/>
					</g>
				</g>
			</g>
		</g>
		<g id="char-e_1_11_">
			<path class="st1" d="M308.8,52.3c-1.7,4.4-8.7,10.3-13.5,4.7c-1.9-2.2-1.7-3.6-1.1-6.4c0.6-2.4,1.9-5.3,4.8-5.3
				c1.5,0,3,1,3.2,2.5c0.2,1.1-0.4,2.3-1.3,3c-0.9,0.8-1.9,1.2-3,1.6c-1.5,0.5-2.8,0.5-3.9,1.7"/>
		</g>
		<g id="char-s_1_10_">
			<path class="st1" d="M308.8,52.2c0,0,0.8-2.6,3.7-5.1c4.1-3.7,7-7.9,5-7.9c-1.9,0,1.2,6.8,2.4,10c1.2,3,1.6,9.7-4.3,10.2
				s-5.5-5.5-4.5-6.5c2-2,5,5.6,9.6,5.5c4.4-0.1,6.8-6.2,6.8-6.2"/>
		</g>
		<g id="char-i_1_12_">
			<g>
				<path class="st1" d="M329.6,43.9l0.6-2.4"/>
				<path class="st1" d="M335.5,52.3c0,0-2.6,7.1-6.8,7.1c-2.4,0-2.2-2.7-1.6-5.6c0.1-0.8,1-4.1,2-8.2"/>
			</g>
		</g>
		<g id="char-g_1_5_">
			<g>
				<g>
					<g>
						<path class="st1" d="M345.2,58.9"/>
						<path class="st1" d="M349,54.3"/>
					</g>
				</g>
				<path class="st1" d="M345.6,53.6c-0.8,3.7-3.3,6.3-6.2,5.7c-2.9-0.6-4.6-4.2-3.7-7.9c0.8-3.7,2.8-6.2,6.7-5.7
					C346.4,46.2,346.4,49.9,345.6,53.6z"/>
				<path class="st1" d="M345.3,54.6c0,0-6.5,34.6-11,32.1c-3.2-1.8,0.8-17.1,7.3-24.2c4.8-5.3,8.2-6.7,9.7-10.3"/>
			</g>
		</g>
		<g id="char-n_1_9_">
			<g>
				<path class="st1" d="M349.8,59.4c1.2-4.3,2.7-10,3.9-14.8"/>
				<path class="st1" d="M352.8,48.4c0,0,3.5-3.9,6.4-2.8c3.4,1.2,1.5,5.9,1,8.1c-0.5,2.1-0.8,5.6,1.6,5.6c4.1,0,6.8-7.1,6.8-7.1"/>
			</g>
		</g>
	</g>
	<g>
		<g id="char-a_1_13_">
			<g>
				<path class="st1" d="M395.9,53.7c-0.3,2.3-0.8,5.7,1.6,5.7c4.1,0,6.8-7.1,6.8-7.1"/>
				<path class="st1" d="M395.9,53.7c-0.8,3.7-3.3,6.3-6.2,5.7c-2.9-0.6-4.6-4.2-3.7-7.9c0.8-3.7,2.8-6.2,6.7-5.7
					S396.8,49.9,395.9,53.7z"/>
			</g>
		</g>
		<g id="char-n_1_8_">
			<g>
				<path class="st1" d="M402.7,59.4c1.2-4.3,2.7-10,3.9-14.8"/>
				<path class="st1" d="M405.7,48.4c0,0,3.5-3.9,6.4-2.8c3.4,1.2,1.5,5.9,1,8.1c-0.5,2.1-0.8,5.6,1.6,5.6c4.1,0,6.8-7.1,6.8-7.1"/>
			</g>
		</g>
		<g id="char-d_1_1_">
			<g>
				<g>
					<g>
						<path class="st1" d="M431.4,59.1"/>
					</g>
				</g>
				<path class="st1" d="M431.4,54.1c-0.8,3.7-3.2,5.8-6.1,5.2c-2.8-0.6-4.6-4.2-3.7-7.9c0.8-3.7,2.8-6.2,6.7-5.7
					c1,0.1,1.8,0.5,2.3,1"/>
				<path class="st1" d="M439.9,52.3c0,0-2.6,7.1-6.8,7.1c-2.4,0-2.2-2.7-1.6-5.6c0.6-3,9.1-35.9,9.1-35.9"/>
				<g>
					<g>
						<path class="st1" d="M431.9,59.1"/>
					</g>
				</g>
			</g>
		</g>
	</g>
	<g>
		<g id="char-u_1_6_">
			<g>
				<path class="st1" d="M467,53.8c-0.3,2.3-0.8,5.7,1.6,5.7c4.1,0,6.8-7.1,6.8-7.1"/>
				<path class="st1" d="M458.8,45.6c0,0-0.8,2.1-1.5,5.4c-0.6,2.6-1,7.8,3.7,8.4c2.9,0.3,5.4-2.3,6.2-6.1l1.9-7.7"/>
			</g>
		</g>
		<g id="char-s_1_8_">
			<path class="st1" d="M475.5,52.2c0,0,0.8-2.6,3.7-5.1c4.1-3.7,7-7.9,5-7.9c-1.9,0,1.2,6.8,2.4,10c1.2,3,1.6,9.7-4.3,10.2
				s-5.5-5.5-4.5-6.5c2-2,5,5.6,9.6,5.5c4.4-0.1,6.8-6.2,6.8-6.2"/>
		</g>
		<g id="char-e_1_10_">
			<path class="st1" d="M509.2,52.3c-1.7,4.4-8.7,10.3-13.5,4.7c-1.9-2.2-1.7-3.6-1.1-6.4c0.6-2.4,1.9-5.3,4.8-5.3
				c1.5,0,3,1,3.2,2.5c0.2,1.1-0.4,2.3-1.3,3c-0.9,0.8-1.9,1.2-3,1.6c-1.5,0.5-2.8,0.5-3.9,1.7"/>
		</g>
	</g>
	<g>
		<g id="char-o_1_11_">
			<path class="st1" d="M30.5,120.7c0,0-2.3,2.8-6.3,2.3c-1.8-0.2-5.9-1.8-6.4-3.5c-0.4-1.5,1.9-1.7,3.2-1.5c2.5,0.6,4,1.7,3,8
				c-0.6,3.8-3.4,6.3-6.3,5.7s-4.5-4.8-3.6-8.4c0.6-2.2,1.5-3.4,1.5-3.4"/>
		</g>
		<g id="char-f_1">
			<g>
				<path class="st1" d="M39.7,120.7c0,0-1.7,2.1-4.3,2.1s-4.8-2.2-4.8-2.2c4.2,3.4,2.1,24.5-2.8,25c-3.4,0.3,2.3-23.4,2.3-23.4
					c3.2-11.6,8.4-31.8,8.4-31.8"/>
			</g>
		</g>
	</g>
	<g>
		<g id="char-p_1_4_">
			<path class="st1" d="M70.9,125c0,0-2.4,6.4-8.6,3.6c-3.7-1.7-5.4,1.4-5.4,1.4c0.6,0.6,1.4,1.1,2.3,1.5c3.7,1.4,5.5-1.8,6.6-5.5
				c1.1-3.7,0.1-7.1-2.7-7.9s-6.1,1.9-7.2,5.6l-9.4,35.9"/>
		</g>
		<g id="char-h_1_6_">
			<g>
				<path class="st1" d="M69.1,131.9c4.6-16.9,10.5-41.5,10.5-41.5"/>
				<path class="st1" d="M72,120.8c0,0,3.5-3.8,6.4-2.8c3.4,1.2,1.5,5.9,1,8.1c-0.5,2.1-0.8,5.7,1.6,5.7c4.1,0,6.8-7.3,6.8-7.3"/>
			</g>
		</g>
		<g id="char-y_1_1_">
			<g>
				<path class="st1" d="M97.8,127.1c0,0-6.5,34.6-11,32.1c-3.2-1.8,0.8-17.1,7.3-24.2c4.8-5.3,8.2-6.7,9.7-10.3"/>
				<path class="st1" d="M90,118.1c0,0-1,2.1-1.7,5.4c-0.6,2.6-1,7.8,3.7,8.4c2.9,0.3,5.4-2.3,6.2-6.1l1.8-7.7"/>
			</g>
		</g>
		<g id="char-s_1_7_">
			<path class="st1" d="M104,124.7c0,0,0.8-2.6,3.7-5.1c4.1-3.7,7-7.9,5-7.9c-1.9,0,1.2,6.8,2.4,10c1.2,3,1.6,9.7-4.3,10.2
				s-5.5-5.5-4.5-6.5c2-2,5,5.6,9.6,5.5c4.4-0.1,6.8-6.2,6.8-6.2"/>
		</g>
		<g id="char-i_1_11_">
			<g>
				<path class="st1" d="M124.7,116.3l0.6-2.4"/>
				<path class="st1" d="M130.7,124.8c0,0-2.6,7.1-6.8,7.1c-2.4,0-2.2-2.7-1.6-5.6c0.1-0.8,1-4.1,2-8.2"/>
			</g>
		</g>
		<g id="char-c_1_7_">
			<path class="st1" d="M144.8,127c-3.2,7.9-16,5.7-13.9-3.7c0.6-2.4,1.9-5.3,4.8-5.3c1.5,0,3,1,3.2,2.5c0.2,1.1-0.4,2.3-1.3,3"/>
		</g>
		<g id="char-a_1_12_">
			<g>
				<path class="st1" d="M155.4,126.1c-0.3,2.3-0.8,5.7,1.6,5.7c4.1,0,6.8-7.1,6.8-7.1"/>
				<path class="st1" d="M155.4,126.1c-0.8,3.7-3.3,6.3-6.2,5.7s-4.6-4.2-3.7-7.9c0.8-3.7,2.8-6.2,6.7-5.7S156.2,122.3,155.4,126.1
					L155.4,126.1z"/>
			</g>
		</g>
		<g id="char-l_1">
			<path class="st1" d="M171.8,124.8c0,0-2.6,7.1-6.8,7.1c-2.4,0-2.2-2.7-1.6-5.6c0.6-2.9,9.1-35.9,9.1-35.9"/>
		</g>
	</g>
	<g>
		<g id="char-c_1_6_">
			<path class="st1" d="M203.1,127c-3.2,7.9-16,5.7-13.9-3.7c0.6-2.4,1.9-5.3,4.8-5.3c1.5,0,3,1,3.2,2.5c0.2,1.1-0.4,2.3-1.3,3"/>
		</g>
		<g id="char-o_1_10_">
			<path class="st1" d="M220.3,120.7c0,0-2.3,2.8-6.3,2.3c-1.8-0.2-5.9-1.8-6.4-3.5c-0.4-1.5,1.9-1.7,3.2-1.5c2.5,0.6,4,1.7,3,8
				c-0.6,3.8-3.4,6.3-6.3,5.7s-4.5-4.8-3.6-8.4c0.6-2.2,1.5-3.4,1.5-3.4"/>
		</g>
		<g id="char-m_1_2_">
			<g>
				<path class="st1" d="M217.5,131.9c0,0,2.8-10.2,4.1-15"/>
				<path class="st1" d="M220.4,121.1c0,0,2.4-4.1,6-2.8c2.2,0.8,1.8,3.7,1.5,5"/>
				<path class="st1" d="M243.2,124.8c0,0-2.6,7.1-6.8,7.1c-2.4,0-2.1-3.5-1.6-5.6s2.4-6.8-1-8.1c-2.9-1.1-5.2,1.9-5.6,3.4
					c-0.3,1.5-1.1,4.2-1.1,4.2"/>
			</g>
		</g>
		<g id="char-p_1_3_">
			<path class="st1" d="M258.2,125c0,0-2.4,6.4-8.6,3.6c-3.7-1.7-5.4,1.4-5.4,1.4c0.6,0.6,1.4,1.1,2.3,1.5c3.7,1.4,5.5-1.8,6.6-5.5
				s0.1-7.1-2.7-7.9s-6.1,1.9-7.2,5.6l-9.4,35.9"/>
		</g>
		<g id="char-u_1_5_">
			<g>
				<path class="st1" d="M268.2,126.2c-0.3,2.3-0.8,5.7,1.6,5.7c4.1,0,6.8-7.1,6.8-7.1"/>
				<path class="st1" d="M260,118.1c0,0-0.8,2.1-1.5,5.4c-0.6,2.6-1,7.8,3.7,8.4c2.9,0.3,5.4-2.3,6.2-6.1l1.9-7.7"/>
			</g>
		</g>
		<g id="char-t_1_11_">
			<g>
				<path class="st1" d="M284.7,124.8c0,0-2.6,7.1-6.8,7.1c-2.4,0-2.2-2.7-1.6-5.6s9.1-35.9,9.1-35.9"/>
				<path class="st1" d="M285.1,115.6h-12.4"/>
			</g>
		</g>
		<g id="char-i_1_10_">
			<g>
				<path class="st1" d="M287,116.3l0.6-2.4"/>
				<path class="st1" d="M292.9,124.8c0,0-2.6,7.1-6.8,7.1c-2.4,0-2.2-2.7-1.6-5.6c0.1-0.8,1-4.1,2-8.2"/>
			</g>
		</g>
		<g id="char-n_1_7_">
			<g>
				<path class="st1" d="M291.2,131.9c1.2-4.3,2.7-10,3.9-14.8"/>
				<path class="st1" d="M294.2,120.9c0,0,3.5-3.9,6.4-2.8c3.4,1.2,1.5,5.9,1,8.1c-0.5,2.1-0.8,5.6,1.6,5.6c4.1,0,6.8-7.1,6.8-7.1"
					/>
			</g>
		</g>
		<g id="char-g_1_4_">
			<g>
				<g>
					<g>
						<path class="st1" d="M319.7,131.4"/>
						<path class="st1" d="M323.4,126.8"/>
					</g>
				</g>
				<path class="st1" d="M320,126.1c-0.8,3.7-3.3,6.3-6.2,5.7c-2.9-0.6-4.6-4.2-3.7-7.9s2.8-6.2,6.7-5.7
					C320.8,118.7,320.9,122.3,320,126.1L320,126.1z"/>
				<path class="st1" d="M319.8,127.1c0,0-6.5,34.6-11,32.1c-3.2-1.8,0.8-17.1,7.3-24.2c4.8-5.3,8.2-6.7,9.7-10.3"/>
			</g>
		</g>
	</g>
	<g>
		<g id="char-t_1_10_">
			<g>
				<path class="st1" d="M351.3,124.8c0,0-2.6,7.1-6.8,7.1c-2.4,0-2.2-2.7-1.6-5.6s9.1-35.9,9.1-35.9"/>
				<path class="st1" d="M351.7,115.6h-12.4"/>
			</g>
		</g>
		<g id="char-o_1_7_">
			<path class="st1" d="M368.2,120.7c0,0-2.3,2.8-6.3,2.3c-1.8-0.2-5.9-1.8-6.4-3.5c-0.4-1.5,1.9-1.7,3.2-1.5c2.5,0.6,4,1.7,3,8
				c-0.6,3.8-3.4,6.3-6.3,5.7s-4.5-4.8-3.6-8.4c0.6-2.2,1.5-3.4,1.5-3.4"/>
		</g>
		<g id="char-o_1_6_">
			<path class="st1" d="M384.1,120.7c0,0-2.3,2.8-6.3,2.3c-1.8-0.2-5.9-1.8-6.4-3.5c-0.4-1.5,1.9-1.7,3.2-1.5c2.5,0.6,4,1.7,3,8
				c-0.6,3.8-3.4,6.3-6.3,5.7s-4.5-4.8-3.6-8.4c0.6-2.2,1.5-3.4,1.5-3.4"/>
		</g>
		<g id="char-l_1_6_">
			<path class="st1" d="M391.3,124.8c0,0-2.6,7.1-6.8,7.1c-2.4,0-2.2-2.7-1.6-5.6s9.1-35.9,9.1-35.9"/>
		</g>
		<g id="char-k_1_1_">
			<g>
				<path class="st1" d="M389.2,131.9c4.7-16.9,10.6-41.5,10.6-41.5"/>
				<path class="st1" d="M408.9,104.2l-16.7,16.5c0,0,3.5-3.8,6.4-2.8c3.4,1.2,1.5,5.9,1,8.1c-0.5,2.1-0.8,5.9,1.6,5.9
					c4.1,0,6.8-7.4,6.8-7.4"/>
			</g>
		</g>
		<g id="char-i_1_9_">
			<g>
				<path class="st1" d="M409.8,116.3l0.6-2.4"/>
				<path class="st1" d="M415.8,124.8c0,0-2.6,7.1-6.8,7.1c-2.4,0-2.2-2.7-1.6-5.6c0.1-0.8,1-4.1,2-8.2"/>
			</g>
		</g>
		<g id="char-t_1_9_">
			<g>
				<path class="st1" d="M423.9,124.8c0,0-2.6,7.1-6.8,7.1c-2.4,0-2.2-2.7-1.6-5.6s9.1-35.9,9.1-35.9"/>
				<path class="st1" d="M424.2,115.6h-12.4"/>
			</g>
		</g>
		<g id="char-s_1_6_">
			<path class="st1" d="M424.1,124.7c0,0,0.8-2.6,3.7-5.1c4.1-3.7,7-7.9,5-7.9c-1.9,0,1.2,6.8,2.4,10c1.2,3,1.6,9.7-4.3,10.2
				s-5.5-5.5-4.5-6.5c2-2,5,5.6,9.6,5.5c4.4-0.1,6.8-6.2,6.8-6.2"/>
		</g>
	</g>
</g>
</svg>
