<?xml version="1.0" encoding="utf-8"?>
<!-- Generator: Adobe Illustrator 19.2.1, SVG Export Plug-In . SVG Version: 6.00 Build 0)  -->
<svg version="1.1" id="Layer_1" xmlns="http://www.w3.org/2000/svg" xmlns:xlink="http://www.w3.org/1999/xlink" x="0px" y="0px"
	 viewBox="0 0 238 89" style="enable-background:new 0 0 238 89;" xml:space="preserve">
<style type="text/css">
	.st0{fill:none;stroke:#000000;stroke-width:3;stroke-linecap:round;stroke-linejoin:round;stroke-miterlimit:10;}
	.st1{fill:none;stroke:#000000;stroke-width:3;stroke-linecap:round;stroke-miterlimit:10;}
	.st2{fill:none;stroke:#000000;stroke-width:3;stroke-linecap:round;stroke-linejoin:round;stroke-miterlimit:20;}
</style>
<g id="char-A_1">
	<g>
		<path class="st0" d="M71.5,49c-3.8,4.8-10.2,4.1-15.9,4.2c-8.8,0.3-17.6,0.1-26.3,1.5s-17.1,5-22.7,12c-3.9,4.9-5.7,12.8,1,16.3
			c16,8.3,24.1-28.3,28.4-39.3C42.8,26.2,49.1,17.5,63.3,4c-6.9,26.7-13.7,53.3-20.6,80"/>
	</g>
</g>
<g id="char-r_1_1_">
	<path class="st1" d="M71.5,49c0.8-2.6,1.7-5.1,3.7-5.4c1.3-0.2,7.3,2,7.7,2.9c0.4,0.9-2.3,6.2-2.9,9.3C79.3,59,78.8,64,82.3,64
		c6,0,9.8-10.3,9.8-10.3"/>
</g>
<g id="char-c_1_1_">
	<path class="st1" d="M111.9,57.5c-4.7,11.5-22.4,7.8-19.4-5.9c0.8-3.5,2.8-7.6,7-7.7c2.1,0,4.3,1.5,4.6,3.6
		c0.3,1.6-0.6,3.3-1.9,4.4"/>
</g>
<g id="char-h_1">
	<g>
		<path class="st1" d="M110.5,64c6.7-24.5,15.2-60,15.2-60"/>
		<path class="st1" d="M114.8,48c0,0,5-5.5,9.3-4c4.9,1.8,2.1,8.6,1.4,11.7c-0.7,3-1.2,8.3,2.3,8.3c6,0,9.8-10.5,9.8-10.5"/>
	</g>
</g>
<g id="char-i_1_1_">
	<g>
		<path class="st1" d="M141.1,40.3l0.6-2.3"/>
		<path class="st1" d="M149.4,53.7c0,0-3.8,10.3-9.8,10.3c-3.5,0-3.2-3.9-2.3-8.1c0.2-1.2,1.4-5.9,2.9-11.9"/>
	</g>
</g>
<g id="char-v_1">
	<path class="st2" d="M149.8,44.1c0,0-0.8,6.4-0.2,9.8s3.3,10,5.6,10.1s7.3-5.9,9.2-10.1s2.5-9.8,2.5-9.8s2,5.3,4.6,6
		c4,1.2,7-2.1,7-2.1"/>
</g>
<g id="char-e_1">
	<path class="st1" d="M199.3,53.7c-2.5,6.3-12.6,14.9-19.5,6.8c-2.7-3.2-2.5-5.2-1.6-9.2c0.8-3.5,2.8-7.6,7-7.7
		c2.1,0,4.3,1.5,4.6,3.6c0.3,1.6-0.6,3.3-1.9,4.4c-1.3,1.1-2.8,1.7-4.4,2.3c-2.1,0.7-4.1,0.7-5.6,2.4"/>
</g>
</svg>
