<?xml version="1.0" encoding="utf-8"?>
<!-- Generator: Adobe Illustrator 19.2.1, SVG Export Plug-In . SVG Version: 6.00 Build 0)  -->
<svg version="1.1" id="Layer_1" xmlns="http://www.w3.org/2000/svg" xmlns:xlink="http://www.w3.org/1999/xlink" x="0px" y="0px"
	 viewBox="0 0 235 89" style="enable-background:new 0 0 235 89;" xml:space="preserve">
<style type="text/css">
	.st0{fill:none;stroke:#206B77;stroke-width:3;stroke-linecap:round;stroke-miterlimit:10;}
</style>
<g>
	<g id="char-C_1">
		<path class="st0" d="M49,54.5C46,71,34.3,93.8,12.6,82.2c-18.7-10-5.8-43.1,2.3-56C20,18.1,41.7-5.9,52.8,8.5
			c4.9,6.4-1.7,22.5-9.1,24.3c-7.8,1.9-1.1-13.9,11.2-7.3"/>
	</g>
	<g id="char-h_1_5_">
		<g>
			<path class="st0" d="M61.9,64C68.6,39.5,77.1,4,77.1,4"/>
			<path class="st0" d="M66.2,48c0,0,5-5.5,9.3-4c4.9,1.8,2.1,8.6,1.4,11.7c-0.7,3-1.2,8.3,2.3,8.3c6,0,9.8-10.5,9.8-10.5"/>
		</g>
	</g>
	<g id="char-a_1_6_">
		<g>
			<path class="st0" d="M103.9,55.7c-0.4,3.3-1.2,8.3,2.3,8.3c6,0,9.8-10.3,9.8-10.3"/>
			<path class="st0" d="M103.9,55.7c-1.2,5.4-4.8,9.1-9,8.2s-6.6-6.1-5.4-11.5s4-9,9.7-8.2S105.1,50.2,103.9,55.7z"/>
		</g>
	</g>
	<g id="char-r_1_4_">
		<path class="st0" d="M116.1,53.7c0.8-2.6,3.4-9.8,5.4-10.1c1.3-0.2,7.3,2,7.7,2.9s-2.3,6.2-2.9,9.3c-0.7,3.2-1.2,8.2,2.3,8.2
			c6,0,9.8-10.3,9.8-10.3"/>
	</g>
	<g id="char-r_1_5_">
		<path class="st0" d="M138.4,53.7c0.8-2.6,3.4-9.8,5.4-10.1c1.3-0.2,7.3,2,7.7,2.9s-2.3,6.2-2.9,9.3c-0.7,3.2-1.2,8.2,2.3,8.2
			c6,0,9.8-10.3,9.8-10.3"/>
	</g>
	<g id="char-e_1_4_">
		<path class="st0" d="M182.4,53.7c-2.5,6.3-12.6,14.9-19.5,6.8c-2.7-3.2-2.5-5.2-1.6-9.2c0.8-3.5,2.8-7.6,7-7.7
			c2.1,0,4.3,1.5,4.6,3.6c0.3,1.6-0.6,3.3-1.9,4.4c-1.3,1.1-2.8,1.7-4.4,2.3c-2.1,0.7-4.1,0.7-5.6,2.4"/>
	</g>
	<g id="char-t_1_5_">
		<g>
			<path class="st0" d="M194.2,53.7c0,0-3.8,10.3-9.8,10.3c-3.5,0-3.2-3.9-2.3-8.1C183,51.7,195.3,4,195.3,4"/>
			<path class="st0" d="M194.7,40.4h-18"/>
		</g>
	</g>
	<g id="char-t_1_6_">
		<g>
			<path class="st0" d="M206.2,53.7c0,0-3.8,10.3-9.8,10.3c-3.5,0-3.2-3.9-2.3-8.1C195,51.7,207.3,4,207.3,4"/>
			<path class="st0" d="M206.7,40.4h-18"/>
		</g>
	</g>
	<g id="char-e_1_5_">
		<path class="st0" d="M228.2,53.7c-2.5,6.3-12.6,14.9-19.5,6.8c-2.7-3.2-2.5-5.2-1.6-9.2c0.8-3.5,2.8-7.6,7-7.7
			c2.1,0,4.3,1.5,4.6,3.6c0.3,1.6-0.6,3.3-1.9,4.4c-1.3,1.1-2.8,1.7-4.4,2.3c-2.1,0.7-4.1,0.7-5.6,2.4"/>
	</g>
</g>
</svg>
