<?xml version="1.0" encoding="utf-8"?>
<!-- Generator: Adobe Illustrator 19.2.1, SVG Export Plug-In . SVG Version: 6.00 Build 0)  -->
<svg version="1.1" id="Layer_1" xmlns="http://www.w3.org/2000/svg" xmlns:xlink="http://www.w3.org/1999/xlink" x="0px" y="0px"
	 viewBox="0 0 238 89" style="enable-background:new 0 0 238 89;" xml:space="preserve">
<style type="text/css">
	.st0{fill:none;stroke:#000000;stroke-width:3;stroke-linecap:round;stroke-miterlimit:10;}
</style>
<g>
	<g id="char-L_1">
		<path class="st0" d="M70.2,73.9C62,79.4,52,82.9,42,82.3c-10.1-0.5-15.7-5.9-24.3-9.9c-4.2-2-8.3-2.5-11.9,1
			C3,76,1.3,80.9,5.9,82.8c8.4,3.4,14.6-11.9,17-17.1c8-18,9.1-38.7,17.4-56.3c5.1-10.8,14.4-2.8,6.7,0.8c-5.6,2.8-17.9-5-24.3-5.7"
			/>
	</g>
	<g id="char-o_1">
		<path class="st0" d="M87,47.9c0,0-3.3,4-9.1,3.3c-2.6-0.3-8.6-2.6-9.3-5c-0.6-2.2,2.7-2.5,4.6-2.1c3.6,0.8,5.8,2.5,4.3,11.6
			c-0.9,5.5-4.9,9.1-9.1,8.2s-6.5-7-5.2-12.1c0.8-3.2,2.1-4.9,2.1-4.9"/>
	</g>
	<g id="char-c_1">
		<path class="st0" d="M106.3,57c-4.7,11.5-23.1,8.3-20.1-5.4c0.8-3.5,2.8-7.6,7-7.7c2.1,0,4.3,1.5,4.6,3.6c0.3,1.6-0.6,3.3-1.9,4.4
			"/>
	</g>
	<g id="char-a_1">
		<g>
			<path class="st0" d="M121.5,55.7c-0.4,3.3-1.2,8.3,2.3,8.3c6,0,9.8-10.3,9.8-10.3"/>
			<path class="st0" d="M121.5,55.7c-1.2,5.4-4.8,9.1-9,8.2s-6.6-6.1-5.4-11.5s4-9,9.7-8.2C122.5,45,122.7,50.2,121.5,55.7z"/>
		</g>
	</g>
	<g id="char-t_1">
		<g>
			<path class="st0" d="M145.4,53.7c0,0-3.8,10.3-9.8,10.3c-3.5,0-3.2-3.9-2.3-8.1S146.5,4,146.5,4"/>
			<path class="st0" d="M145.9,40.4h-18"/>
		</g>
	</g>
	<g id="char-i_1">
		<g>
			<path class="st0" d="M149,40.1l0.5-2.1"/>
			<path class="st0" d="M157.2,53.7c0,0-3.8,10.3-9.8,10.3c-3.5,0-3.2-3.9-2.3-8.1c0.2-1.2,1.4-5.9,2.9-11.9"/>
		</g>
	</g>
	<g id="char-o_1_1_">
		<path class="st0" d="M181.4,47.9c0,0-3.3,4-9.1,3.3c-2.6-0.3-8.6-2.6-9.3-5c-0.6-2.2,2.7-2.5,4.6-2.1c3.6,0.8,5.8,2.5,4.3,11.6
			c-0.9,5.5-4.9,9.1-9.1,8.2c-4.2-0.9-6.5-7-5.2-12.1c0.8-3.2,2.1-4.9,2.1-4.9"/>
	</g>
	<g id="char-n_1">
		<g>
			<path class="st0" d="M177.8,64c1.7-6.2,3.9-14.5,5.7-21.4"/>
			<path class="st0" d="M182.1,48.1c0,0,5.1-5.7,9.3-4.1c4.9,1.8,2.1,8.6,1.4,11.7c-0.7,3-1.2,8.1,2.3,8.1c6,0,9.8-10.3,9.8-10.3"/>
		</g>
	</g>
	<g id="char-s_1">
		<path class="st0" d="M204.9,53.6c0,0,1.2-3.8,5.3-7.4c6-5.4,10.2-11.4,7.3-11.4c-2.7,0,1.7,9.9,3.5,14.5c1.7,4.3,2.3,14-6.2,14.7
			s-8-7.9-6.5-9.4c2.9-2.9,7.2,8.1,13.9,8c6.3-0.1,9.8-9,9.8-9"/>
	</g>
</g>
</svg>
