<?xml version="1.0" encoding="utf-8"?>
<!-- Generator: Adobe Illustrator 19.2.1, SVG Export Plug-In . SVG Version: 6.00 Build 0)  -->
<svg version="1.1" id="Layer_1" xmlns="http://www.w3.org/2000/svg" xmlns:xlink="http://www.w3.org/1999/xlink" x="0px" y="0px"
	 viewBox="0 0 482 89" style="enable-background:new 0 0 482 89;" xml:space="preserve">
<style type="text/css">
	.st0{fill:none;stroke:#206B77;stroke-width:3;stroke-linecap:round;stroke-miterlimit:10;}
</style>
<g>
	<g id="char-R_1">
		<g>
			<path class="st0" d="M10.4,84.5c9-32.7,16.8-65.6,16.8-65.6"/>
			<path class="st0" d="M53.6,74.2c0,0-3.8,10.3-9.8,10.3c-3.5,0-3.7-3.8-2.3-8.1c1.3-4.3,5.8-11.9,0.9-17.6S19.9,48.4,19.9,48.4
				c12.4,3.2,27.5,1.7,34.5-5.7c7-7.5,6.1-19.7,0.7-27.1C42.6-1.4,12.2,0.6,3,20.2"/>
		</g>
	</g>
	<g id="char-a_1">
		<g>
			<path class="st0" d="M73.6,55.7C73.2,59,72.4,64,75.9,64c6,0,9.8-10.3,9.8-10.3"/>
			<path class="st0" d="M73.6,55.7c-1.2,5.4-4.8,9.1-9,8.2s-6.6-6.1-5.4-11.5s4-9,9.7-8.2S74.8,50.2,73.6,55.7z"/>
		</g>
	</g>
	<g id="char-d_1">
		<g>
			<g>
				<g>
					<path class="st0" d="M100.3,63.5"/>
				</g>
			</g>
			<path class="st0" d="M100.3,56.3c-1.2,5.4-4.7,8.4-8.8,7.5c-4.1-0.9-6.6-6.1-5.4-11.5s4-9,9.7-8.2c1.5,0.2,2.6,0.7,3.4,1.5"/>
			<path class="st0" d="M112.5,53.7c0,0-3.8,10.3-9.8,10.3c-3.5,0-3.2-3.9-2.3-8.1C101.3,51.6,113.6,4,113.6,4"/>
			<g>
				<g>
					<path class="st0" d="M101,63.5"/>
				</g>
			</g>
		</g>
	</g>
	<g id="char-i_1">
		<g>
			<path class="st0" d="M115.3,41.5l0.9-3.5"/>
			<path class="st0" d="M123.9,53.7c0,0-3.8,10.3-9.8,10.3c-3.5,0-3.2-3.9-2.3-8.1c0.2-1.2,1.4-5.9,2.9-11.9"/>
		</g>
	</g>
	<g id="char-c_1">
		<path class="st0" d="M144.4,57c-4.7,11.5-23.1,8.3-20.1-5.4c0.8-3.5,2.8-7.6,7-7.7c2.1,0,4.3,1.5,4.6,3.6c0.3,1.6-0.6,3.3-1.9,4.4
			"/>
	</g>
	<g id="char-a_1_1_">
		<g>
			<path class="st0" d="M159.7,55.7c-0.4,3.3-1.2,8.3,2.3,8.3c6,0,9.8-10.3,9.8-10.3"/>
			<path class="st0" d="M159.7,55.7c-1.2,5.4-4.8,9.1-9,8.2s-6.6-6.1-5.4-11.5c1.2-5.4,4-9,9.7-8.2S160.9,50.2,159.7,55.7z"/>
		</g>
	</g>
	<g id="char-l_1">
		<path class="st0" d="M183.5,53.7c0,0-3.8,10.3-9.8,10.3c-3.5,0-3.2-3.9-2.3-8.1S184.6,4,184.6,4"/>
	</g>
</g>
<g>
	<g id="char-H_1">
		<g>
			<path class="st0" d="M286.4,4.1l-19.3,80.1"/>
			<path class="st0" d="M268.3,4c-0.7,2.6-1.4,4.9-2.1,7.5c-1.6,6.2-3.3,12.2-4.9,18.4c-1.8,7.1-3.7,14.1-5.7,21.2
				c-2.8,10.6-4.4,22.8-13.6,30c-0.3,0.2-0.6,0.4-0.9,0.6c-3.2,2.3-7.2,3.6-10.9,1.5c-2.6-1.5-4.2-4.4-4.1-7.3
				c0.1-6.4,5.7-11.6,10.4-15.2c11.3-8.6,40.8-7.1,46.4-7.7c6.9-0.8,9.8-5,9.8-5"/>
		</g>
	</g>
	<g id="char-a_1_2_">
		<g>
			<path class="st0" d="M306,55.7c-0.4,3.3-1.2,8.3,2.3,8.3c6,0,9.8-10.3,9.8-10.3"/>
			<path class="st0" d="M306,55.7c-1.2,5.4-4.8,9.1-9,8.2s-6.6-6.1-5.4-11.5s4-9,9.7-8.2S307.2,50.2,306,55.7L306,55.7z"/>
		</g>
	</g>
	<g id="char-r_1">
		<path class="st0" d="M318.2,53.7c0.8-2.6,3.4-9.8,5.4-10.1c1.3-0.2,7.3,2,7.7,2.9c0.4,0.9-2.3,6.2-2.9,9.3
			c-0.7,3.2-1.2,8.2,2.3,8.2c6,0,9.8-10.3,9.8-10.3"/>
	</g>
	<g id="char-d_1_1_">
		<g>
			<g>
				<g>
					<path class="st0" d="M355,63.5"/>
				</g>
			</g>
			<path class="st0" d="M355,56.3c-1.2,5.4-4.7,8.4-8.8,7.5c-4.1-0.9-6.6-6.1-5.4-11.5s4-9,9.7-8.2c1.5,0.2,2.6,0.7,3.4,1.5"/>
			<path class="st0" d="M367.2,53.7c0,0-3.8,10.3-9.8,10.3c-3.5,0-3.2-3.9-2.3-8.1C356,51.6,368.3,4,368.3,4"/>
			<g>
				<g>
					<path class="st0" d="M355.7,63.5"/>
				</g>
			</g>
		</g>
	</g>
	<g id="char-w_1">
		<g>
			<path class="st0" d="M369.6,44c0,0-1.2,3-2.2,7.8c-0.8,3.8-1.4,11.3,5.3,12.2c4.2,0.5,7.8-3.3,9-8.8l2.7-11.2"/>
			<path class="st0" d="M410,47.8c0,0-2.4,3.3-6.7,2.8c-4.3-0.5-4-6.7-4-6.7l-2.7,11.2c-1.2,5.4-4.7,9.3-9,8.8
				c-6.7-0.8-5.9-8.2-5.1-11.9c1-4.8,2-8,2-8"/>
		</g>
	</g>
	<g id="char-a_1_3_">
		<g>
			<path class="st0" d="M423.7,55.7c-0.4,3.3-1.2,8.3,2.3,8.3c6,0,9.8-10.3,9.8-10.3"/>
			<path class="st0" d="M423.7,55.7c-1.2,5.4-4.8,9.1-9,8.2s-6.6-6.1-5.4-11.5s4-9,9.7-8.2S424.9,50.2,423.7,55.7L423.7,55.7z"/>
		</g>
	</g>
	<g id="char-r_1_1_">
		<path class="st0" d="M435.9,53.7c0.8-2.6,3.4-9.8,5.4-10.1c1.3-0.2,7.3,2,7.7,2.9c0.4,0.9-2.3,6.2-2.9,9.3
			c-0.7,3.2-1.2,8.2,2.3,8.2c6,0,9.8-10.3,9.8-10.3"/>
	</g>
	<g id="char-e_1">
		<path class="st0" d="M479.9,53.7c-2.5,6.3-12.6,14.9-19.5,6.8c-2.7-3.2-2.5-5.2-1.6-9.2c0.8-3.5,2.8-7.6,7-7.7
			c2.1,0,4.3,1.5,4.6,3.6c0.3,1.6-0.6,3.3-1.9,4.4c-1.3,1.1-2.8,1.7-4.4,2.3c-2.1,0.7-4.1,0.7-5.6,2.4"/>
	</g>
</g>
</svg>
