<?xml version="1.0" encoding="utf-8"?>
<!-- Generator: Adobe Illustrator 19.2.1, SVG Export Plug-In . SVG Version: 6.00 Build 0)  -->
<svg version="1.1" id="Layer_1" xmlns="http://www.w3.org/2000/svg" xmlns:xlink="http://www.w3.org/1999/xlink" x="0px" y="0px"
	 viewBox="0 0 698 135" style="enable-background:new 0 0 698 135;" xml:space="preserve">
<style type="text/css">
	.st0{fill:none;stroke:#000000;stroke-width:2;stroke-miterlimit:1;}
</style>
<g>
	<g>
		<g id="char-S_1_1_">
			<path class="st0" d="M57.8,29.1C68.5,8.4,40.3-6.9,25.1,7.9c-10.6,10.3-3.4,20.6,7,26.8c9.4,5.5,19.2,11.5,25.3,20.9
				c12.6,19.9,2.8,41.9-19.2,47.7c-18.4,4.8-40.6,0.4-34.8-23.2c2.3-9.8,14.4-20.9,24.2-20.5c6.7,0.3,5.2,7.1-0.8,8
				C19.7,68.5,12.9,63.8,10,59"/>
		</g>
		<g id="char-k_1">
			<g>
				<path class="st0" d="M70.2,79.4C78.9,47.8,89.9,2,89.9,2"/>
				<path class="st0" d="M106.8,27.7L75.7,58.5c0,0,6.4-7.1,12-5.2c6.3,2.3,2.7,11.1,1.8,15.1c-0.9,3.9-1.5,11,3,11
					c7.7,0,12.6-13.8,12.6-13.8"/>
			</g>
		</g>
		<g id="char-e_1_9_">
			<path class="st0" d="M132.8,66.1c-3.2,8.1-16.2,19.2-25.1,8.8c-3.5-4.1-3.2-6.7-2.1-11.9c1-4.5,3.6-9.8,9-9.9
				c2.7,0,5.5,1.9,5.9,4.6c0.4,2.1-0.8,4.3-2.4,5.7c-1.7,1.4-3.6,2.2-5.7,3c-2.7,0.9-5.3,0.9-7.2,3.1"/>
		</g>
		<g id="char-t_1">
			<g>
				<path class="st0" d="M148.1,66.1c0,0-4.9,13.3-12.6,13.3c-4.5,0-4.1-5-3-10.4s17-66.9,17-66.9"/>
				<path class="st0" d="M148.7,48.9h-23.2"/>
			</g>
		</g>
		<g id="char-c_1">
			<path class="st0" d="M174.9,70.3c-6.1,14.8-29.8,10.7-25.9-7c1-4.5,3.6-9.8,9-9.9c2.7,0,5.5,1.9,5.9,4.6c0.4,2.1-0.8,4.3-2.4,5.7
				"/>
		</g>
		<g id="char-h_1">
			<g>
				<path class="st0" d="M172.2,79.4C180.9,47.8,191.8,2,191.8,2"/>
				<path class="st0" d="M177.8,58.7c0,0,6.4-7.1,12-5.2c6.3,2.3,2.7,11.1,1.8,15.1c-0.9,3.9-1.5,10.7,3,10.7
					c7.7,0,12.6-13.5,12.6-13.5"/>
			</g>
		</g>
		<g id="char-i_1_8_">
			<g>
				<path class="st0" d="M211.3,50.4l1.2-4.5"/>
				<path class="st0" d="M222.4,66.1c0,0-4.9,13.3-12.6,13.3c-4.5,0-4.1-5-3-10.4c0.3-1.5,1.8-7.6,3.7-15.3"/>
			</g>
		</g>
		<g id="char-n_1">
			<g>
				<path class="st0" d="M219.3,79.4c2.2-8,5-18.7,7.3-27.6"/>
				<path class="st0" d="M224.8,58.9c0,0,6.6-7.3,12-5.3c6.3,2.3,2.7,11.1,1.8,15.1c-0.9,3.9-1.5,10.4,3,10.4
					c7.7,0,12.6-13.3,12.6-13.3"/>
			</g>
		</g>
		<g id="char-g_1">
			<g>
				<g>
					<g>
						<path class="st0" d="M272.4,78.5"/>
						<path class="st0" d="M279.4,69.8"/>
					</g>
				</g>
				<path class="st0" d="M273.1,68.5c-1.5,7-6.2,11.7-11.6,10.6c-5.4-1.2-8.5-7.9-7-14.8c1.5-7,5.2-11.6,12.5-10.6
					C274.5,54.7,274.6,61.6,273.1,68.5z"/>
				<path class="st0" d="M272.6,70.5c0,0-12.1,64.6-20.5,60c-6.1-3.4,1.5-31.8,13.5-45.1c9-9.9,15.3-12.5,18.1-19.2"/>
			</g>
		</g>
	</g>
	<g>
		<g id="char-i_1_2_">
			<g>
				<path class="st0" d="M307.2,50.4l1.2-4.5"/>
				<path class="st0" d="M318.3,66.1c0,0-4.9,13.3-12.6,13.3c-4.5,0-4.1-5-3-10.4c0.3-1.5,1.8-7.6,3.7-15.3"/>
			</g>
		</g>
		<g id="char-n_1_1_">
			<g>
				<path class="st0" d="M315.2,79.4c2.2-8,5-18.7,7.4-27.6"/>
				<path class="st0" d="M320.7,58.9c0,0,6.6-7.3,12-5.3c6.3,2.3,2.7,11.1,1.8,15.1c-0.9,3.9-1.5,10.4,3,10.4
					c7.7,0,12.6-13.3,12.6-13.3"/>
			</g>
		</g>
	</g>
	<g>
		<g id="char-H_1">
			<g>
				<path class="st0" d="M440.6,2.1l-24.9,103.3"/>
				<path class="st0" d="M417.3,2c-0.9,3.4-1.8,6.3-2.7,9.7c-2.1,8-4.3,15.7-6.3,23.7c-2.3,9.2-4.8,18.2-7.4,27.3
					c-3.6,13.7-5.7,29.4-17.5,38.7c-0.4,0.3-0.8,0.5-1.2,0.8c-4.1,3-9.3,4.6-14.1,1.9c-3.4-1.9-5.4-5.7-5.3-9.4
					c0.1-8.3,7.4-15,13.4-19.6c14.6-11.1,52.6-9.2,59.8-9.9c8.9-1,12.6-6.4,12.6-6.4"/>
			</g>
		</g>
		<g id="char-a_1_5_">
			<g>
				<path class="st0" d="M465.8,68.7c-0.5,4.3-1.5,10.7,3,10.7c7.7,0,12.6-13.3,12.6-13.3"/>
				<path class="st0" d="M465.8,68.7c-1.5,7-6.2,11.7-11.6,10.6s-8.5-7.9-7-14.8c1.5-7,5.2-11.6,12.5-10.6
					C467.1,54.9,467.4,61.6,465.8,68.7L465.8,68.7z"/>
			</g>
		</g>
		<g id="char-r_1_10_">
			<path class="st0" d="M481.5,66.1c1-3.4,4.4-12.6,7-13c1.7-0.3,9.4,2.6,9.9,3.7c0.5,1.2-3,8-3.7,12c-0.9,4.1-1.5,10.6,3,10.6
				c7.7,0,12.6-13.3,12.6-13.3"/>
		</g>
		<g id="char-d_1">
			<g>
				<g>
					<g>
						<path class="st0" d="M529,78.7"/>
					</g>
				</g>
				<path class="st0" d="M529,69.4c-1.5,7-6.1,10.8-11.3,9.7c-5.3-1.2-8.5-7.9-7-14.8s5.2-11.6,12.5-10.6c1.9,0.3,3.4,0.9,4.4,1.9"
					/>
				<path class="st0" d="M544.7,66.1c0,0-4.9,13.3-12.6,13.3c-4.5,0-4.1-5-3-10.4c1.2-5.5,17-66.9,17-66.9"/>
				<g>
					<g>
						<path class="st0" d="M529.9,78.7"/>
					</g>
				</g>
			</g>
		</g>
		<g id="char-w_1">
			<g>
				<path class="st0" d="M547.8,53.6c0,0-1.5,3.9-2.8,10.1c-1,4.9-1.8,14.6,6.8,15.7c5.4,0.6,10.1-4.3,11.6-11.3l3.5-14.4"/>
				<path class="st0" d="M599.9,58.5c0,0-3.1,4.3-8.6,3.6c-5.5-0.6-5.2-8.6-5.2-8.6l-3.5,14.4c-1.5,7-6.1,12-11.6,11.3
					c-8.6-1-7.6-10.6-6.6-15.3c1.3-6.2,2.6-10.3,2.6-10.3"/>
			</g>
		</g>
		<g id="char-a_1_4_">
			<g>
				<path class="st0" d="M617.6,68.7c-0.5,4.3-1.5,10.7,3,10.7c7.7,0,12.6-13.3,12.6-13.3"/>
				<path class="st0" d="M617.6,68.7c-1.5,7-6.2,11.7-11.6,10.6c-5.4-1.2-8.5-7.9-7-14.8c1.5-7,5.2-11.6,12.5-10.6
					C618.9,54.9,619.1,61.6,617.6,68.7z"/>
			</g>
		</g>
		<g id="char-r_1_9_">
			<path class="st0" d="M633.3,66.1c1-3.4,4.4-12.6,7-13c1.7-0.3,9.4,2.6,9.9,3.7c0.5,1.2-3,8-3.7,12c-0.9,4.1-1.5,10.6,3,10.6
				c7.7,0,12.6-13.3,12.6-13.3"/>
		</g>
		<g id="char-e_1_8_">
			<path class="st0" d="M690.1,66.1c-3.2,8.1-16.2,19.2-25.1,8.8c-3.5-4.1-3.2-6.7-2.1-11.9c1-4.5,3.6-9.8,9-9.9
				c2.7,0,5.5,1.9,5.9,4.6c0.4,2.1-0.8,4.3-2.5,5.7c-1.7,1.4-3.6,2.2-5.7,3c-2.7,0.9-5.3,0.9-7.2,3.1"/>
		</g>
	</g>
</g>
</svg>
