# Blender v2.78 (sub 0) OBJ File: 'sketching_mediumparts_v1.blend'
# www.blender.org
o parts_smooth004_sketching-parts001.006
v -2.719398 2.262221 3.035624
v -2.758819 2.138303 3.051634
v -2.593888 2.024139 3.079143
v 0.409425 0.858131 -0.211403
v 0.261696 0.702348 -0.404578
v 0.191382 1.286334 -0.327177
v -0.001722 1.040060 -0.453916
v 0.023828 0.560225 -0.482874
v -0.250317 0.883945 -0.391991
v -2.537621 2.560976 2.092315
v -2.709049 2.581361 2.148447
v -2.501452 2.605304 2.737801
v -0.429775 0.058819 -0.119259
v -0.358508 -0.021485 0.126416
v -0.400635 0.546454 0.082222
v -0.241723 0.697503 0.338092
v -0.260353 -0.048291 0.249687
v -0.126939 0.137527 0.369076
v 0.145908 0.823089 0.391122
v -0.171625 1.356899 0.459930
v -0.040134 0.623252 0.404971
v -0.331099 1.193454 0.405885
v 0.275257 0.999429 0.313522
v 0.091645 1.315781 0.389077
v 0.448444 0.032479 -0.205541
v 0.467001 0.713696 -0.019934
v 0.474382 0.034429 0.009734
v 0.303331 0.059386 -0.416009
v 0.372984 -0.037042 -0.219765
v -0.170657 -0.042654 -0.399826
v -0.298742 0.014976 -0.378808
v -0.109313 0.013515 -0.496003
v -0.189965 0.398944 -0.428251
v 0.070926 0.046516 -0.508489
v 0.171865 -0.037656 -0.405892
v 0.017201 0.010376 -0.055389
v 0.400487 0.319451 0.241837
v -0.391291 0.405150 -0.205715
v -1.599686 2.073622 0.763835
v -1.783816 2.347485 0.809056
v -1.919518 2.021441 1.025352
v 0.329424 1.335040 -0.069254
v 0.389036 1.089527 0.119648
v -3.055132 2.277517 2.299016
v -2.734465 2.434552 2.906864
v -2.930187 2.456676 2.327450
v -0.435693 1.834072 0.465186
v -0.590849 2.166368 0.410717
v -0.969869 2.069779 0.579372
v -1.034600 1.871053 0.537524
v 0.154368 1.679880 0.121573
v 0.222613 1.431116 0.226406
v -2.893027 1.733145 2.092654
v -3.029483 1.797146 1.559114
v -2.816946 1.659590 1.453786
v -3.119966 2.003853 2.070584
v -3.139600 1.996058 1.657606
v 0.365221 -0.046598 0.089345
v 0.300454 -0.017775 0.271178
v 0.024181 -0.051685 0.299299
v -0.381395 -0.049392 -0.098784
v -0.458797 0.876601 -0.158657
v -0.550143 1.104713 0.055920
v -0.514237 1.181268 -0.247482
v -0.521836 1.167489 0.229187
v -0.494431 1.727468 -0.415881
v -0.905437 2.015943 -0.359452
v -0.643306 2.089063 -0.340977
v -0.626616 2.339054 -0.110303
v -0.329356 2.049432 -0.238639
v -0.998269 2.290487 -0.271172
v -1.035009 2.486676 -0.075630
v -0.396175 1.295499 -0.383020
v -0.198407 1.483212 -0.428164
v 0.116354 0.015605 0.376774
v -3.019156 2.055427 2.433174
v -2.829268 1.852239 2.684127
v -0.909078 2.511690 0.198164
v -1.364631 2.599584 0.173849
v -0.013229 1.661769 0.349509
v 0.053134 1.658089 -0.271848
v -0.904339 1.529557 0.226824
v -0.167857 1.689567 -0.377285
v -2.919441 2.524226 2.013178
v -3.083020 2.401979 1.831722
v -3.162461 2.217233 1.751955
v 0.082143 1.778065 -0.056972
v -0.301525 2.153865 0.032086
v -0.425535 2.208676 0.237753
v -1.683854 1.984159 -0.138526
v -2.149134 1.951979 0.071268
v -1.844418 2.241516 -0.107203
v -1.320758 1.813354 -0.133414
v -1.348298 2.041644 -0.245561
v -0.657286 1.611126 0.453156
v -0.770293 1.674304 -0.334867
v -0.907712 1.507936 -0.039804
v -1.057858 1.656860 -0.133536
v -0.865103 1.655182 0.407739
v -1.827216 1.853377 0.826313
v -2.210093 1.659070 0.702116
v -1.758244 1.685138 0.395943
v -2.599705 2.365586 0.544604
v -2.253806 2.256118 0.110044
v -2.538631 2.102762 0.356021
v -2.213996 2.478293 0.268022
v -2.522788 2.513130 0.748123
v -1.188742 1.735867 0.425973
v -1.323827 1.685406 0.244895
v -2.378912 2.552107 0.967917
v -2.897406 2.520339 1.550192
v -2.576280 2.540906 1.428554
v -3.016362 2.422228 1.454676
v -1.906803 1.756941 0.133293
v -1.023057 2.486671 0.389717
v -1.934445 2.584836 0.316175
v -1.451850 2.271361 -0.205966
v -1.474364 2.498820 -0.065308
v -1.778345 2.593873 0.434409
v -1.452015 1.738542 0.043945
v -1.500526 1.826809 0.587471
v -2.548148 1.730039 2.861767
v -2.508621 1.834162 3.072051
v -1.459097 2.304327 0.686883
v -1.857557 2.508778 0.675826
v -2.364669 1.784385 0.376654
v -2.693165 1.679999 1.783429
v -1.922402 2.452722 0.047917
v -2.205143 1.725265 1.135115
v -1.979469 2.269868 1.056642
v -2.320048 2.464890 1.277247
v -2.241406 2.342183 1.375080
v -2.669019 1.692775 0.944055
v -2.687144 1.912984 0.629380
v -2.297935 1.846978 1.554513
v -2.918408 2.211966 0.963183
v -2.359679 2.188982 2.849252
v -2.187952 1.784709 2.960845
v -2.557580 2.523587 2.889065
v -2.472265 1.628677 1.071691
v -2.239574 2.119442 1.556664
v -2.356929 2.441878 2.104320
v -2.375610 2.401435 1.677276
v -2.740932 2.572814 1.708261
v -3.005761 1.989259 1.134694
v -2.874651 1.805042 1.063042
v -3.111771 2.233674 1.418457
v -2.722533 1.695365 2.353013
v -2.318265 1.918928 1.746605
v -2.267370 2.212597 1.902431
v -2.541225 1.709813 2.130319
v -2.334089 1.846005 2.086216
v -2.178362 2.232867 2.219876
v -2.137972 1.893229 2.438994
v -2.359640 1.706198 2.493566
v -1.981407 2.032979 2.642460
v -2.271827 2.581537 2.717966
v -2.442897 1.687843 2.692106
v -2.112961 2.459019 2.622737
v -1.957823 2.227776 2.682656
v -2.025620 1.866471 2.856042
vn -0.3014 0.3796 0.8747
vn -0.6244 -0.0329 0.7804
vn 0.1191 0.1056 0.9872
vn 0.8867 0.1610 -0.4333
vn 0.5453 0.0909 -0.8333
vn 0.6153 0.2739 -0.7391
vn 0.0971 0.0894 -0.9912
vn 0.0143 0.0566 -0.9983
vn -0.4926 -0.0712 -0.8673
vn 0.3213 0.9413 -0.1032
vn -0.1523 0.9877 0.0346
vn -0.1100 0.9662 0.2330
vn -0.9756 -0.1855 -0.1175
vn -0.7946 -0.4897 0.3589
vn -0.9476 -0.0969 0.3042
vn -0.5999 -0.1521 0.7855
vn -0.6060 -0.1963 0.7709
vn -0.3306 -0.1675 0.9288
vn 0.3280 -0.0102 0.9446
vn 0.0942 0.0049 0.9955
vn -0.0987 -0.0532 0.9937
vn -0.3858 -0.2483 0.8885
vn 0.6730 0.1052 0.7321
vn 0.4727 0.1645 0.8657
vn 0.8761 -0.3688 -0.3106
vn 0.9957 0.0844 0.0380
vn 0.9005 -0.4177 0.1212
vn 0.5935 -0.2865 -0.7521
vn 0.3897 -0.8976 -0.2062
vn -0.1785 -0.9273 -0.3289
vn -0.6810 -0.3968 -0.6154
vn -0.2271 -0.4315 -0.8730
vn -0.5270 0.0587 -0.8478
vn 0.1601 -0.3096 -0.9373
vn 0.1927 -0.8941 -0.4042
vn 0.0031 -0.9998 -0.0205
vn 0.7743 -0.0302 0.6320
vn -0.9213 0.0110 -0.3886
vn 0.4501 -0.1198 0.8849
vn 0.5346 0.4724 0.7007
vn 0.7596 -0.1669 0.6286
vn 0.9167 0.3589 -0.1758
vn 0.9333 0.2112 0.2904
vn -0.9206 0.2847 0.2671
vn -0.5883 0.6149 0.5251
vn -0.6518 0.7297 0.2065
vn 0.2344 0.1353 0.9626
vn 0.4199 0.4870 0.7658
vn 0.2720 0.0368 0.9615
vn 0.0879 -0.4371 0.8951
vn 0.8047 0.5363 0.2545
vn 0.7958 0.3251 0.5108
vn -0.4913 -0.8628 0.1195
vn -0.7577 -0.6469 -0.0859
vn -0.3410 -0.9388 -0.0472
vn -0.9357 -0.3036 0.1798
vn -0.9566 -0.2812 -0.0758
vn 0.3755 -0.9182 0.1256
vn 0.5104 -0.6119 0.6043
vn -0.0368 -0.9364 0.3489
vn -0.5466 -0.8353 -0.0595
vn -0.9029 -0.2167 -0.3712
vn -0.8620 -0.4989 0.0897
vn -0.7291 -0.4001 -0.5551
vn -0.6787 -0.5088 0.5296
vn -0.0511 0.0596 -0.9969
vn -0.1447 0.0751 -0.9866
vn 0.1656 0.4448 -0.8802
vn 0.4096 0.8218 -0.3959
vn 0.4814 0.6325 -0.6068
vn 0.0169 0.5209 -0.8534
vn 0.1536 0.8673 -0.4735
vn -0.3648 -0.1827 -0.9130
vn 0.1163 0.0976 -0.9884
vn 0.0081 -0.9974 -0.0711
vn 0.1620 -0.4345 0.8860
vn -0.9236 -0.1765 0.3404
vn -0.7162 -0.6008 0.3551
vn 0.3589 0.9291 0.0891
vn 0.0647 0.9945 -0.0816
vn 0.5346 0.3829 0.7534
vn 0.6200 0.4415 -0.6485
vn -0.4987 -0.7939 0.3478
vn 0.3343 0.3136 -0.8887
vn -0.4847 0.8716 0.0733
vn -0.8028 0.5957 0.0244
vn -0.9852 0.1709 -0.0121
vn 0.7521 0.6305 -0.1919
vn 0.6254 0.7783 -0.0552
vn 0.5641 0.7379 0.3705
vn -0.2966 -0.3858 -0.8736
vn -0.4777 -0.3769 -0.7936
vn -0.3586 0.1970 -0.9125
vn -0.3671 -0.6030 -0.7083
vn -0.2753 -0.1724 -0.9457
vn -0.1448 -0.3242 0.9348
vn -0.3975 -0.3523 -0.8472
vn -0.6085 -0.7406 -0.2851
vn -0.4284 -0.7504 -0.5033
vn -0.2848 -0.6616 0.6936
vn 0.5021 -0.6745 0.5412
vn 0.0614 -0.9972 -0.0417
vn 0.0620 -0.9952 0.0755
vn -0.7014 0.5280 -0.4788
vn -0.5734 0.2451 -0.7818
vn -0.7443 -0.0564 -0.6655
vn -0.4348 0.7556 -0.4899
vn -0.4182 0.8810 -0.2212
vn -0.0857 -0.8078 0.5831
vn -0.1852 -0.9756 0.1176
vn 0.0316 0.9971 0.0692
vn -0.3969 0.9105 -0.1162
vn 0.1744 0.9842 0.0297
vn -0.7182 0.6598 -0.2209
vn -0.2125 -0.8340 -0.5092
vn 0.3077 0.7853 0.5372
vn -0.1632 0.9606 -0.2250
vn -0.2171 0.3018 -0.9283
vn -0.1344 0.7594 -0.6365
vn 0.0630 0.9840 0.1664
vn -0.2321 -0.8865 -0.4003
vn 0.2016 -0.7465 0.6340
vn -0.2802 -0.8917 0.3554
vn -0.1058 -0.4793 0.8713
vn 0.3146 0.3771 0.8711
vn 0.3345 0.8106 0.4806
vn -0.4637 -0.7269 -0.5065
vn 0.1021 -0.9915 0.0800
vn -0.3155 0.6836 -0.6581
vn 0.5182 -0.8104 0.2731
vn 0.7510 0.2961 0.5901
vn 0.4949 0.8247 0.2735
vn 0.7591 0.5365 0.3685
vn -0.4261 -0.8559 -0.2931
vn -0.7570 -0.3937 -0.5214
vn 0.7604 -0.5647 0.3207
vn -0.8394 0.2823 -0.4643
vn 0.4525 0.2984 0.8403
vn 0.3926 0.3589 0.8468
vn 0.0520 0.6840 0.7276
vn 0.0395 -0.9992 -0.0092
vn 0.9412 0.0704 0.3304
vn 0.6924 0.6857 -0.2244
vn 0.7562 0.6529 0.0435
vn -0.0902 0.9940 -0.0616
vn -0.9000 -0.2269 -0.3721
vn -0.7134 -0.6161 -0.3339
vn -0.9421 0.2133 -0.2586
vn -0.2564 -0.9633 0.0795
vn 0.9253 -0.3511 0.1430
vn 0.9796 0.1608 -0.1204
vn 0.2450 -0.9663 -0.0788
vn 0.7203 -0.6484 -0.2463
vn 0.9078 0.2197 -0.3572
vn 0.7754 -0.5349 -0.3355
vn 0.3543 -0.9273 -0.1207
vn 0.9417 -0.2500 -0.2251
vn 0.4604 0.7910 0.4028
vn 0.0687 -0.9925 0.1014
vn 0.7438 0.6677 -0.0310
vn 0.9170 0.2964 0.2670
vn 0.6842 -0.7226 -0.0983
vn 0.2757 -0.9491 0.1520
vn 0.3431 0.3735 0.8618
s 1
f 1//1 2//2 3//3
f 4//4 5//5 6//6
f 5//5 7//7 6//6
f 8//8 9//9 7//7
f 10//10 11//11 12//12
f 13//13 14//14 15//15
f 16//16 14//14 17//17
f 14//14 16//16 15//15
f 17//17 18//18 16//16
f 19//19 20//20 21//21
f 21//21 20//20 22//22
f 21//21 22//22 16//16
f 23//23 24//24 19//19
f 24//24 20//20 19//19
f 25//25 26//26 27//27
f 28//28 25//25 29//29
f 28//28 5//5 4//4
f 25//25 4//4 26//26
f 30//30 31//31 32//32
f 32//32 31//31 33//33
f 34//34 28//28 35//35
f 28//28 29//29 35//35
f 32//32 34//34 35//35
f 36//36 35//35 29//29
f 32//32 35//35 30//30
f 30//30 35//35 36//36
f 23//23 19//19 37//37
f 8//8 33//33 9//9
f 38//38 9//9 33//33
f 8//8 7//7 5//5
f 39//39 40//40 41//41
f 28//28 8//8 5//5
f 32//32 33//33 8//8
f 32//32 8//8 34//34
f 42//42 26//26 4//4
f 26//26 42//42 43//43
f 44//44 2//2 45//45
f 1//1 45//45 2//2
f 44//44 45//45 46//46
f 47//47 48//48 49//49
f 47//47 49//49 50//50
f 28//28 4//4 25//25
f 28//28 34//34 8//8
f 42//42 51//51 43//43
f 43//43 52//52 23//23
f 51//51 52//52 43//43
f 53//53 54//54 55//55
f 54//54 53//53 56//56
f 54//54 56//56 57//57
f 58//58 59//59 60//60
f 29//29 58//58 36//36
f 58//58 60//60 36//36
f 33//33 31//31 38//38
f 27//27 58//58 25//25
f 25//25 58//58 29//29
f 27//27 59//59 58//58
f 27//27 37//37 59//59
f 30//30 61//61 31//31
f 36//36 61//61 30//30
f 31//31 61//61 13//13
f 31//31 13//13 38//38
f 62//62 63//63 64//64
f 9//9 38//38 62//62
f 15//15 62//62 38//38
f 38//38 13//13 15//15
f 16//16 22//22 65//65
f 66//66 67//67 68//68
f 68//68 69//69 70//70
f 68//68 67//67 71//71
f 69//69 68//68 71//71
f 69//69 71//71 72//72
f 7//7 9//9 73//73
f 7//7 73//73 74//74
f 64//64 73//73 9//9
f 66//66 74//74 73//73
f 60//60 17//75 36//36
f 60//60 59//59 75//76
f 60//60 75//76 17//17
f 75//76 18//18 17//17
f 36//36 17//75 61//61
f 76//77 77//78 2//2
f 78//79 72//72 79//80
f 59//59 37//37 75//76
f 61//61 14//14 13//13
f 61//61 17//75 14//14
f 75//76 37//37 19//19
f 24//24 80//81 20//20
f 19//19 21//21 75//76
f 75//76 21//21 18//18
f 18//18 21//21 16//16
f 27//27 26//26 37//37
f 62//62 15//15 63//63
f 63//63 15//15 16//16
f 65//65 63//63 16//16
f 26//26 43//43 37//37
f 37//37 43//43 23//23
f 4//4 6//6 42//42
f 52//52 24//24 23//23
f 7//7 74//74 6//6
f 81//82 42//42 6//6
f 6//6 74//74 81//82
f 9//9 62//62 64//64
f 65//65 82//83 63//63
f 74//74 83//84 81//82
f 74//74 66//66 83//84
f 84//85 85//86 46//46
f 86//87 44//44 85//86
f 44//44 46//46 85//86
f 86//87 56//56 44//44
f 42//42 87//88 51//51
f 52//52 51//51 80//81
f 87//88 88//89 51//51
f 51//51 88//89 89//90
f 52//52 80//81 24//24
f 20//20 80//81 47//47
f 90//91 91//92 92//93
f 81//82 87//88 42//42
f 88//89 87//88 70//70
f 93//94 90//91 94//95
f 22//22 20//20 95//96
f 51//51 89//90 80//81
f 80//81 48//48 47//47
f 48//48 80//81 89//90
f 81//82 83//84 70//70
f 81//82 70//70 87//88
f 73//73 64//64 96//97
f 97//98 96//97 64//64
f 97//98 98//99 96//97
f 73//73 96//97 66//66
f 64//64 63//63 97//98
f 22//22 95//96 65//65
f 65//65 95//96 99//100
f 65//65 99//100 82//83
f 63//63 82//83 97//98
f 20//20 47//47 95//96
f 47//47 50//50 95//96
f 100//101 101//102 102//103
f 83//84 66//66 68//68
f 83//84 68//68 70//70
f 103//104 104//105 105//106
f 106//107 103//104 107//108
f 99//100 95//96 50//50
f 108//109 82//83 99//100
f 66//66 96//97 67//67
f 94//95 67//67 96//97
f 57//57 56//56 86//87
f 94//95 96//97 93//94
f 88//89 70//70 69//69
f 89//90 88//89 69//69
f 89//90 69//69 78//79
f 97//98 109//110 98//99
f 96//97 98//99 93//94
f 110//111 107//108 111//112
f 110//111 111//112 112//113
f 111//112 107//108 113//114
f 108//109 109//110 82//83
f 108//109 99//100 50//50
f 90//91 114//115 91//92
f 115//116 48//48 89//90
f 69//69 72//72 78//79
f 89//90 78//79 115//116
f 82//83 109//110 97//98
f 116//117 106//107 107//108
f 116//117 107//108 110//111
f 67//67 94//95 117//118
f 71//71 67//67 117//118
f 72//72 71//71 118//119
f 115//116 78//79 79//80
f 115//116 79//80 119//120
f 98//99 120//121 93//94
f 56//56 76//77 44//44
f 76//77 2//2 44//44
f 50//50 121//122 108//109
f 109//110 108//109 121//122
f 50//50 39//39 121//122
f 50//50 49//49 39//39
f 122//123 123//124 77//78
f 123//124 2//2 77//78
f 3//3 2//2 123//124
f 48//48 124//125 49//49
f 98//99 109//110 120//121
f 120//121 109//110 114//115
f 93//94 120//121 90//91
f 120//121 114//115 90//91
f 109//110 102//103 114//115
f 39//39 49//49 124//125
f 92//93 94//95 90//91
f 94//95 92//93 117//118
f 117//118 118//119 71//71
f 117//118 92//93 118//119
f 118//119 116//117 79//80
f 48//48 115//116 124//125
f 125//126 124//125 115//116
f 72//72 118//119 79//80
f 79//80 116//117 119//120
f 121//122 102//103 109//110
f 121//122 100//101 102//103
f 125//126 115//116 119//120
f 102//103 101//102 114//115
f 114//115 101//102 126//127
f 53//53 55//55 127//128
f 92//93 91//92 104//105
f 128//129 92//93 104//105
f 118//119 92//93 128//129
f 128//129 116//117 118//119
f 39//39 100//101 121//122
f 106//107 128//129 104//105
f 124//125 40//40 39//39
f 124//125 125//126 40//40
f 106//107 116//117 128//129
f 114//115 126//127 91//92
f 91//92 105//106 104//105
f 126//127 105//106 91//92
f 119//120 116//117 110//111
f 119//120 110//111 125//126
f 106//107 104//105 103//104
f 100//101 129//130 101//102
f 41//41 40//40 130//131
f 131//132 130//131 40//40
f 40//40 125//126 131//132
f 130//131 131//132 132//133
f 110//111 131//132 125//126
f 126//127 133//134 134//135
f 126//127 134//135 105//106
f 100//101 39//39 41//41
f 100//101 41//41 129//130
f 41//41 135//136 129//130
f 134//135 136//137 105//106
f 103//104 105//106 136//137
f 137//138 3//3 138//139
f 137//138 139//140 3//3
f 139//140 1//1 3//3
f 107//108 103//104 136//137
f 101//102 129//130 140//141
f 141//142 135//136 41//41
f 130//131 141//142 41//41
f 101//102 133//134 126//127
f 133//134 101//102 140//141
f 142//143 143//144 10//10
f 112//113 144//145 10//10
f 144//145 11//11 10//10
f 134//135 145//146 136//137
f 134//135 146//147 145//146
f 132//133 141//142 130//131
f 107//108 136//137 113//114
f 136//137 147//148 113//114
f 131//132 110//111 112//113
f 148//149 77//78 53//53
f 77//78 148//149 122//123
f 133//134 55//55 146//147
f 140//141 55//55 133//134
f 133//134 146//147 134//135
f 141//142 149//150 135//136
f 149//150 141//142 150//151
f 129//130 127//128 140//141
f 140//141 127//128 55//55
f 129//130 135//136 127//128
f 132//133 143//144 141//142
f 141//142 143//144 150//151
f 132//133 131//132 143//144
f 11//11 84//85 46//46
f 131//132 112//113 143//144
f 143//144 112//113 10//10
f 145//146 146//147 54//54
f 136//137 145//146 147//148
f 145//146 57//57 147//148
f 113//114 147//148 86//87
f 113//114 86//87 85//86
f 111//112 113//114 85//86
f 111//112 144//145 112//113
f 146//147 55//55 54//54
f 151//152 127//128 135//136
f 151//152 135//136 149//150
f 150//151 152//153 149//150
f 54//54 57//57 145//146
f 147//148 57//57 86//87
f 143//144 142//143 150//151
f 150//151 142//143 153//154
f 144//145 111//112 84//85
f 111//112 85//86 84//85
f 144//145 84//85 11//11
f 148//149 53//53 151//152
f 151//152 53//53 127//128
f 152//153 150//151 154//155
f 149//150 152//153 151//152
f 155//156 152//153 154//155
f 77//78 56//56 53//53
f 77//78 76//77 56//56
f 154//155 150//151 153//154
f 154//155 153//154 156//157
f 152//153 155//156 151//152
f 155//156 148//149 151//152
f 142//143 10//10 157//158
f 157//158 10//10 12//12
f 155//156 158//159 148//149
f 158//159 122//123 148//149
f 139//140 157//158 12//12
f 46//46 12//12 11//11
f 153//154 142//143 159//160
f 160//161 153//154 159//160
f 159//160 142//143 157//158
f 159//160 157//158 160//161
f 160//161 157//158 137//138
f 157//158 139//140 137//138
f 154//155 161//162 155//156
f 161//162 138//163 155//156
f 155//156 138//163 158//159
f 153//154 160//161 156//157
f 154//155 156//157 161//162
f 161//162 156//157 160//161
f 46//46 45//45 12//12
f 139//140 12//12 45//45
f 45//45 1//1 139//140
f 138//163 122//123 158//159
f 122//123 138//163 123//124
f 138//139 3//3 123//124
f 138//139 161//164 137//138
f 161//164 160//161 137//138
o branch.009_Plane.011
v -2.439365 2.222674 2.874801
v -2.420871 2.104405 2.916832
v -2.330940 2.216325 2.809229
v -2.312446 2.098057 2.851260
vn 0.4984 0.3585 0.7894
s off
f 162//165 163//165 165//165 164//165
