# Blender v2.78 (sub 0) OBJ File: 'sketching_mediumparts_v1.blend'
# www.blender.org
o parts_block004_sketching-parts001.012
v -2.312234 2.610899 0.458182
v -2.310839 2.248621 0.457034
v -2.148179 2.240556 0.463444
v -1.734047 2.764162 0.465369
v -2.040505 3.047225 0.452194
v -2.320480 2.870553 0.456839
v -2.319002 3.030624 0.445216
v -2.293083 3.032062 0.220479
v -2.284696 3.031091 -0.025058
v -2.284990 2.221576 0.196994
v -2.284401 2.704515 0.088390
v -1.762188 2.273011 0.349224
v -2.048332 2.239897 -0.324587
v -1.704174 2.267497 -0.156119
v -2.262775 2.215391 -0.131714
v -1.701761 3.073503 0.162375
v 0.099289 0.448655 0.578416
v 0.477096 0.667197 0.587743
v 0.118516 0.871395 0.575576
v 0.398416 1.732560 0.542944
v -0.291172 2.246979 0.523560
v -0.381346 1.904745 0.522513
v -2.308353 2.925456 0.388270
v 0.434548 2.159067 -0.089549
v 0.371195 2.699946 0.553109
v 0.389626 2.419947 0.546243
v 0.410180 2.589244 -0.263429
v -0.675133 2.507896 0.093726
v -1.086290 2.480333 -0.233923
v -0.669660 2.481608 -0.234016
v -0.565659 2.336980 0.142751
v -0.536817 2.366126 0.499692
v -0.634712 2.592719 0.462334
v -0.680173 2.586755 0.177207
v -0.369689 2.297333 -0.319090
v -0.658623 2.544768 -0.322764
v -0.463947 3.102715 -0.319486
v -0.694318 3.031424 -0.334726
v -2.228764 2.211286 -0.324894
v -2.292830 2.230695 -0.315431
v -2.254609 2.445680 -0.330384
v -1.730041 3.050528 0.453644
v -1.933215 3.044093 -0.344782
v -2.258405 3.023389 -0.340733
v -1.714117 2.287843 -0.328112
v -1.671967 2.475214 -0.337139
v 0.448168 0.318231 0.567084
v 0.477804 0.466069 0.222215
v 0.504592 0.685891 -0.194567
v 0.440383 2.122399 -0.317448
v 0.125281 2.431483 -0.299459
v -1.672874 2.300311 0.138464
v -1.732317 2.367056 0.464961
v -1.647594 2.538751 0.205022
v -1.603131 2.460388 0.112379
v 0.004572 3.089834 0.474146
v 0.207418 3.080592 0.028797
v -0.256156 3.094362 0.120620
v -1.598412 3.015371 0.201330
v -1.677060 3.013304 0.288915
v -1.287508 3.097311 0.188353
v -1.531019 3.073608 -0.318706
v -0.282403 0.934755 0.558254
v -0.321305 0.327789 0.574874
v 0.448859 2.029279 0.429551
v 0.379782 2.062052 0.549960
v 0.451447 -0.048657 -0.209251
v 0.169433 -0.034298 -0.098660
v 0.404624 -0.034183 -0.294717
v -0.080853 -0.003892 -0.298873
v -0.024940 0.259170 -0.381308
v 0.487076 1.713258 -0.327336
v 0.012098 2.026977 -0.337602
v -0.311315 1.180191 -0.221901
v -0.320962 1.254878 0.175556
v -0.345041 1.467173 0.022293
v 0.471558 1.097195 0.570102
v 0.469601 1.695189 0.450367
v 0.031231 -0.041749 0.570964
v -0.339006 -0.041500 0.359841
v -0.151049 -0.019697 -0.020085
v -0.297293 -0.053005 0.578461
v -1.617846 2.444217 -0.260753
v -1.457993 3.014187 -0.354731
v -1.176307 2.508240 0.114952
v -1.070822 2.533150 -0.306344
v -0.591022 3.135769 0.140006
v -0.646833 2.999618 0.229031
v -0.594540 3.116772 0.463932
v -0.725550 3.051713 0.178108
v -0.714915 3.132249 0.102510
v -1.212317 2.654744 0.183439
v -0.554611 2.326286 -0.293049
v -1.169541 3.093819 -0.317725
v 0.273138 2.896433 -0.274267
v 0.050767 3.086043 -0.287457
v 0.382437 3.067490 -0.237111
v -0.273920 1.662596 -0.351596
v -0.360369 1.791124 -0.258243
v -0.815696 3.120040 -0.278380
v -0.378899 2.272078 -0.105770
v -0.400415 2.287866 0.471872
v -0.388072 2.267884 0.211881
v -0.520429 3.107637 0.489045
v -0.051359 3.021015 0.528944
v -0.349230 2.137243 -0.329465
v 0.356685 3.054578 0.544528
v 0.369813 3.060756 0.263771
v 0.386809 3.056563 -0.050727
v 0.391797 0.321038 -0.394415
v 0.388567 0.538120 -0.377978
v -0.009190 0.519146 -0.371694
v 0.109351 1.503174 -0.342771
v -0.349066 -0.048131 -0.046289
v -0.378842 0.429621 0.359886
v -0.381159 0.252383 -0.369892
v -0.389767 0.788092 0.392034
v -0.384770 0.733535 0.049260
v 0.457307 -0.002411 0.369329
v 0.455976 -0.011832 -0.040843
v 0.497722 1.439873 -0.324869
v 0.062708 1.446085 0.539872
v -0.345936 1.464053 0.529586
v 0.498333 1.240443 -0.265958
v 0.477066 1.201083 -0.329540
v 0.162180 1.148548 -0.340759
v -0.271737 1.267415 -0.347404
v -0.339818 1.213490 0.408766
v -0.353874 0.912539 -0.345380
v 0.407432 0.902827 -0.350880
v 0.095961 0.867821 -0.352325
v -0.379400 0.603320 -0.358004
v 0.471187 0.266449 -0.172982
v 0.339420 -0.015680 0.567062
v 0.452969 0.017385 0.568757
v -0.350075 -0.042162 -0.270000
vn -0.0030 0.0102 0.9999
vn -0.0395 -0.0033 0.9992
vn -0.0216 0.0046 0.9998
vn -0.0160 0.0198 0.9997
vn -0.0125 0.0300 0.9995
vn -0.0006 0.0272 0.9996
vn -0.0293 0.0727 0.9969
vn -0.0541 0.9984 0.0187
vn -0.0560 0.9984 -0.0042
vn -0.0595 0.9982 -0.0005
vn -0.0644 0.9978 -0.0171
vn -0.9968 -0.0116 -0.0794
vn -0.9951 -0.0035 -0.0986
vn -0.9959 -0.0110 -0.0902
vn -0.9976 -0.0172 -0.0664
vn 0.0649 -0.9972 0.0380
vn 0.0368 -0.9980 0.0522
vn -0.0531 -0.9938 0.0981
vn 0.1356 -0.9905 0.0237
vn 0.1180 -0.9930 -0.0027
vn 0.1200 -0.9924 -0.0260
vn 0.1167 -0.9930 0.0181
vn -0.0565 0.9984 -0.0012
vn -0.0078 -0.0056 0.9999
vn -0.0105 -0.0023 0.9999
vn -0.0284 0.0326 0.9991
vn -0.0354 0.0101 0.9993
vn -0.0512 0.0049 0.9987
vn -0.0243 0.0084 0.9997
vn -0.9923 -0.0134 -0.1229
vn -0.9809 -0.0245 -0.1931
vn -0.9903 -0.0263 -0.1366
vn 0.9952 0.0961 0.0155
vn 0.9977 0.0516 0.0446
vn 0.9954 0.0901 0.0333
vn 0.9980 0.0558 0.0295
vn 0.0029 -0.9968 0.0802
vn 0.0286 -0.9958 0.0869
vn 0.0031 -0.9968 0.0800
vn -0.8715 -0.4779 0.1097
vn -0.9191 -0.3797 0.1053
vn -0.9079 -0.4004 0.1242
vn -0.8758 -0.4314 0.2165
vn -0.8497 -0.4849 0.2069
vn 0.0052 0.0054 -1.0000
vn -0.0178 -0.0323 -0.9993
vn 0.0580 -0.0030 -0.9983
vn 0.0167 -0.0233 -0.9996
vn 0.1563 -0.9865 0.0485
vn -0.2941 -0.9553 -0.0315
vn -0.9675 0.1841 0.1736
vn -0.9993 0.0368 -0.0021
vn -0.9995 0.0265 -0.0144
vn -0.0129 -0.0252 -0.9996
vn -0.0035 -0.0267 -0.9996
vn -0.0660 -0.0306 -0.9973
vn -0.1580 -0.0405 -0.9866
vn -0.0051 0.0410 0.9991
vn -0.0152 -0.0217 -0.9996
vn -0.0113 -0.0180 -0.9998
vn -0.9978 -0.0082 -0.0661
vn -0.9965 -0.0080 -0.0828
vn -0.0038 -0.0473 -0.9989
vn 0.0018 -0.0352 -0.9994
vn 0.0249 -0.0203 0.9995
vn 0.9983 -0.0459 0.0366
vn 0.9969 -0.0691 0.0367
vn 0.9987 -0.0313 0.0397
vn 0.9995 -0.0254 0.0176
vn 0.0410 0.0673 -0.9969
vn 0.0419 0.0705 -0.9966
vn 0.1093 0.0591 -0.9922
vn 0.7826 -0.5664 0.2583
vn 0.9648 -0.1605 0.2085
vn 0.9601 -0.0605 0.2730
vn 0.9609 -0.0675 0.2686
vn 0.7774 -0.2442 0.5797
vn 0.9504 0.0029 0.3111
vn -0.0033 -0.0010 1.0000
vn 0.0555 0.9985 0.0036
vn 0.0780 0.9969 0.0045
vn 0.0611 0.9981 -0.0021
vn 0.3590 0.8681 0.3429
vn -0.0593 0.9980 -0.0206
vn -0.0622 0.9978 -0.0220
vn -0.0326 0.0359 0.9988
vn -0.0031 0.0088 1.0000
vn 0.8615 0.0244 0.5071
vn 0.8651 -0.0186 0.5013
vn 0.8680 0.0056 0.4965
vn -0.0419 -0.0093 0.9991
vn -0.0307 -0.0103 0.9995
vn -0.0398 0.0011 0.9992
vn -0.0367 -0.9987 0.0360
vn -0.0163 -0.9997 -0.0175
vn -0.0840 -0.9913 -0.1013
vn 0.0184 -0.9985 -0.0525
vn 0.0022 -0.2802 -0.9599
vn -0.0267 -0.3038 -0.9524
vn -0.0230 -0.1336 -0.9908
vn 0.0391 0.0112 -0.9992
vn 0.0178 0.0539 -0.9984
vn 0.9511 0.0011 0.3088
vn 0.9519 -0.0008 0.3063
vn -0.9869 0.0993 -0.1274
vn -0.9991 0.0268 -0.0327
vn -0.9959 -0.0888 -0.0168
vn -0.0110 0.9969 0.0776
vn -0.0666 0.9974 -0.0275
vn -0.0634 0.9976 -0.0292
vn 0.8096 0.1178 0.5750
vn 0.8083 0.1045 0.5794
vn 0.8176 0.0921 0.5684
vn 0.2361 -0.7831 0.5754
vn 0.0432 -0.9988 -0.0240
vn 0.0462 -0.9981 -0.0396
vn 0.0459 -0.9986 -0.0272
vn 0.0224 0.0108 0.9997
vn 0.0110 -0.0088 0.9999
vn 0.8808 -0.4690 -0.0654
vn 0.8858 -0.4595 -0.0655
vn 0.9068 -0.4208 -0.0267
vn 0.8667 -0.4871 -0.1077
vn 0.1396 -0.9824 -0.1243
vn 0.7591 -0.2006 -0.6193
vn 0.4131 -0.9089 0.0573
vn 0.0514 -0.0246 -0.9984
vn 0.0050 0.5229 -0.8524
vn -0.0151 0.5048 -0.8631
vn 0.0158 0.5325 -0.8463
vn 0.7990 0.5885 0.1240
vn 0.0792 -0.7420 0.6657
vn 0.0488 -0.9959 0.0766
vn 0.0898 -0.9939 0.0639
vn 0.1111 -0.9931 0.0387
vn 0.9155 -0.4019 -0.0187
vn 0.0391 -0.8160 -0.5767
vn 0.0478 -0.8119 -0.5819
vn 0.1067 -0.8869 -0.4494
vn 0.1084 -0.8920 -0.4388
vn 0.0165 -0.0311 -0.9994
vn -0.9223 0.3863 0.0126
vn -0.9722 0.2087 0.1064
vn -0.9751 0.1822 0.1262
vn -0.1353 0.5805 0.8030
vn -0.1863 0.6372 0.7478
vn -0.0727 0.6519 0.7548
vn -0.0898 0.6879 0.7202
vn 0.0298 -0.0025 0.9996
vn 0.0142 -0.0040 0.9999
vn 0.0309 -0.0059 0.9995
vn 0.0456 -0.0007 0.9990
vn -0.0816 0.4506 0.8890
vn -0.8004 -0.4369 -0.4105
vn -0.0622 0.9979 -0.0191
vn -0.0253 0.4953 -0.8683
vn 0.1435 0.0561 -0.9880
vn 0.0819 0.0267 -0.9963
vn 0.1823 0.0961 -0.9785
vn 0.0286 -0.7258 0.6873
vn 0.0155 -0.6795 0.7335
vn 0.0386 -0.4409 0.8967
vn 0.0641 -0.4097 0.9100
vn 0.1486 -0.3886 0.9094
vn 0.0684 0.6780 0.7319
vn -0.0395 0.9989 -0.0233
vn 0.0328 -0.9977 -0.0588
vn -0.9811 -0.0601 0.1840
vn -0.9655 -0.0521 0.2550
vn -0.9907 -0.0760 0.1130
vn 0.0002 -0.8139 -0.5810
vn 0.0503 -0.0115 -0.9987
vn -0.8121 -0.0916 -0.5763
vn -0.7940 -0.0983 -0.5999
vn 0.0842 0.9964 -0.0038
vn -0.0282 0.9991 -0.0306
vn 0.0575 0.9978 -0.0318
vn -0.0814 0.4530 -0.8878
vn -0.0539 0.4821 -0.8744
vn 0.0203 0.5561 -0.8309
vn 0.0473 0.5813 -0.8124
vn -0.1704 -0.9777 -0.1231
vn -0.2851 -0.9581 -0.0275
vn -0.2359 -0.9700 -0.0594
vn -0.3622 -0.9314 0.0351
vn -0.8046 -0.5938 -0.0058
vn -0.8160 -0.5780 0.0034
vn -0.1687 -0.2112 -0.9628
vn -0.0001 -0.8147 -0.5798
vn -0.4649 -0.8696 0.1664
vn -0.4520 -0.8865 0.0992
vn -0.3952 -0.9175 0.0451
vn -0.2119 0.0199 0.9771
vn -0.1308 0.0171 0.9913
vn -0.3148 0.0206 0.9489
vn -0.0614 0.0158 0.9980
vn 0.0012 0.6223 0.7828
vn -0.0397 0.6420 0.7657
vn 0.0430 0.6007 0.7983
vn -0.3185 0.0215 0.9477
vn 0.0837 0.9962 0.0241
vn 0.1155 0.9921 0.0491
vn -0.3943 0.1011 0.9134
vn -0.4420 -0.8605 0.2535
vn 0.0394 0.9992 -0.0015
vn 0.0063 0.0663 -0.9978
vn -0.9933 -0.0383 -0.1087
vn -0.9975 -0.0409 -0.0584
vn -0.9908 -0.1229 -0.0573
vn -0.9980 -0.0463 -0.0429
vn -0.9981 -0.0577 -0.0194
vn -0.9987 -0.0404 -0.0297
vn -0.9975 -0.0553 -0.0431
vn -0.0829 0.6611 0.7457
vn 0.1005 0.9948 0.0169
vn 0.1468 0.9886 0.0324
vn 0.0922 0.9957 0.0116
vn 0.9976 0.0453 0.0517
vn 0.9980 0.0420 0.0476
vn -0.0400 0.0225 0.9989
vn 0.0944 0.9952 0.0263
vn -0.0095 -0.0921 -0.9957
vn 0.9637 0.0222 -0.2661
vn 0.9262 -0.0116 -0.3769
vn 0.8974 -0.0648 -0.4365
vn -0.0250 0.0491 -0.9985
vn 0.9981 0.0590 -0.0200
vn 0.9988 0.0437 0.0215
vn 0.9936 0.1119 0.0132
vn 0.9957 0.0918 0.0107
vn 0.9974 0.0705 0.0162
vn 0.0161 0.0136 -0.9998
vn 0.0295 0.0038 -0.9995
vn 0.9989 0.0375 0.0281
vn -0.9960 -0.0877 0.0189
vn -0.9916 -0.0545 0.1173
vn -0.9988 -0.0491 0.0062
vn -0.9726 0.0566 0.2256
vn -0.9986 0.0494 -0.0175
vn -0.0357 -0.1364 -0.9900
vn 0.9996 0.0265 0.0033
vn 0.9995 -0.0325 -0.0046
vn 0.9999 0.0141 -0.0019
vn -0.0233 0.0481 0.9986
vn -0.0275 0.0389 0.9988
vn -0.0252 0.0336 0.9991
vn -0.9972 -0.0735 0.0121
vn 0.0469 0.0051 -0.9989
vn 0.9926 -0.0211 -0.1190
vn 0.9555 -0.0455 -0.2915
vn 0.0355 0.0306 -0.9989
vn 0.0215 0.0249 -0.9995
vn -0.9633 0.0612 -0.2612
vn 0.0088 0.0012 -1.0000
vn -0.7938 -0.0980 -0.6002
vn 0.9993 0.0129 0.0346
vn -0.9971 0.0107 0.0758
vn -0.8914 0.0518 0.4502
vn -0.9895 0.1334 -0.0555
vn 0.7518 -0.1292 -0.6466
vn 0.7771 -0.0997 -0.6214
vn 0.7809 -0.1112 -0.6147
vn -0.0036 0.0473 -0.9989
vn 0.0059 0.0627 -0.9980
vn -0.0172 0.0252 -0.9995
vn -0.0281 0.0390 -0.9988
vn 0.9109 -0.0214 -0.4121
vn -0.0154 0.0711 -0.9974
vn -0.9990 0.0361 -0.0247
vn 0.0116 -0.0008 0.9999
vn 0.9988 -0.0488 -0.0028
vn 0.9974 -0.0692 0.0182
vn 0.1488 -0.9886 0.0224
vn 0.1213 -0.9924 0.0223
vn 0.9997 0.0161 0.0201
vn 0.0016 -0.0236 0.9997
vn 0.0084 -0.0155 0.9998
vn 0.0567 -0.9929 0.1047
vn 0.1433 -0.9896 -0.0090
vn 0.1413 -0.9897 -0.0236
vn -0.0549 -0.3259 -0.9438
vn -0.9945 -0.1044 0.0017
vn 0.2768 -0.9556 0.1009
vn 0.8643 -0.1068 -0.4916
vn -0.9966 0.0660 -0.0488
vn -0.9859 0.0600 0.1559
vn -0.9843 0.0649 0.1643
vn -0.5686 -0.0571 0.8206
vn 0.7430 -0.0715 0.6655
vn 0.0488 0.0027 0.9988
s 1
f 1//1 2//2 3//3
f 3//3 4//4 5//5
f 3//3 5//5 1//1
f 5//5 6//6 1//1
f 6//6 5//5 7//7
f 5//8 8//9 7//10
f 5//8 9//11 8//9
f 10//12 2//13 1//14
f 10//12 1//14 11//15
f 10//16 3//17 2//18
f 12//19 13//20 14//21
f 13//20 12//19 15//22
f 5//8 16//23 9//11
f 17//24 18//25 19//26
f 20//27 21//28 22//29
f 23//30 6//31 7//32
f 23//30 1//14 6//31
f 24//33 25//34 26//35
f 27//36 25//34 24//33
f 28//37 29//38 30//39
f 31//40 32//41 33//42
f 34//43 31//40 33//42
f 34//43 28//44 31//40
f 35//45 36//46 37//47
f 37//47 36//46 38//48
f 15//22 39//49 13//20
f 39//50 15//50 40//50
f 40//51 15//52 41//53
f 41//54 13//55 39//56
f 39//56 40//57 41//54
f 15//52 11//15 41//53
f 5//5 4//4 42//58
f 43//59 41//54 44//60
f 41//53 9//61 44//62
f 45//63 13//55 46//64
f 18//25 17//24 47//65
f 47//66 48//67 18//68
f 48//67 49//69 18//68
f 50//70 51//71 27//72
f 13//55 41//54 43//59
f 12//73 52//73 53//73
f 52//74 54//75 53//76
f 52//77 55//77 54//77
f 53//76 54//75 4//78
f 3//3 53//79 4//4
f 11//15 15//52 10//12
f 41//53 11//15 9//61
f 56//80 57//81 58//82
f 59//83 16//83 60//83
f 61//84 62//85 16//23
f 63//86 64//87 17//24
f 65//88 26//89 66//90
f 66//91 26//92 21//28
f 26//92 25//93 21//28
f 67//94 68//95 69//96
f 68//95 70//97 69//96
f 69//98 70//99 71//100
f 50//70 72//101 73//102
f 60//103 42//104 4//78
f 74//105 75//106 76//107
f 42//108 16//23 5//8
f 62//85 43//109 16//23
f 16//23 43//109 44//110
f 44//110 9//11 16//23
f 3//17 10//16 12//19
f 10//16 15//22 12//19
f 77//111 78//112 20//113
f 12//114 53//114 3//114
f 13//55 43//59 46//64
f 79//115 80//116 81//117
f 82//118 79//119 64//87
f 14//120 83//121 52//122
f 45//123 83//121 14//120
f 14//21 13//20 45//124
f 83//125 45//125 46//125
f 52//126 12//19 14//21
f 46//64 43//59 84//127
f 62//128 84//129 43//130
f 60//131 16//131 42//131
f 54//132 55//132 85//132
f 29//38 85//133 83//134
f 55//135 83//134 85//133
f 52//122 83//121 55//136
f 86//137 29//138 83//139
f 83//139 46//140 86//137
f 46//64 84//127 86//141
f 87//142 88//143 89//144
f 88//145 87//146 90//147
f 87//146 91//148 90//147
f 92//149 90//150 61//151
f 92//149 61//151 59//152
f 59//153 61//153 16//153
f 93//154 30//154 36//154
f 61//84 94//155 62//85
f 84//129 62//128 94//156
f 95//157 96//158 97//159
f 28//160 34//161 85//162
f 29//38 28//37 85//133
f 34//161 92//163 85//162
f 92//163 54//164 85//162
f 91//148 61//165 90//147
f 91//166 94//155 61//84
f 80//116 79//115 82//167
f 82//168 64//169 80//170
f 30//171 29//138 86//137
f 94//172 36//46 86//141
f 94//172 38//48 36//46
f 98//173 74//105 99//174
f 84//127 94//172 86//141
f 87//175 100//176 91//166
f 87//175 37//177 100//176
f 100//176 94//155 91//166
f 37//178 38//179 100//180
f 94//181 100//180 38//179
f 35//182 101//183 93//184
f 101//183 31//185 93//184
f 93//186 31//40 30//187
f 31//40 28//44 30//187
f 36//46 35//45 93//188
f 30//171 86//137 36//189
f 102//190 32//191 103//192
f 103//192 32//191 31//185
f 104//193 32//194 21//28
f 33//195 32//194 104//193
f 25//93 105//196 21//28
f 21//28 105//196 104//193
f 105//197 56//198 104//199
f 33//195 104//193 89//200
f 56//80 58//82 104//201
f 104//201 58//82 89//202
f 58//82 87//175 89//202
f 103//192 31//185 101//183
f 22//203 21//203 102//203
f 102//190 21//204 32//191
f 96//205 37//177 58//82
f 58//82 37//177 87//175
f 35//45 51//71 106//206
f 106//207 101//208 35//209
f 99//210 22//211 103//212
f 22//211 102//213 103//212
f 51//71 35//45 95//157
f 95//157 35//45 37//47
f 78//112 65//88 20//113
f 95//157 37//47 96//158
f 57//81 96//205 58//82
f 107//214 56//198 105//197
f 108//215 109//216 57//81
f 57//81 97//217 96//205
f 51//71 95//157 27//72
f 25//34 108//218 107//219
f 107//220 105//196 25//93
f 107//221 108//215 56//80
f 108//215 57//81 56//80
f 69//98 71//100 110//222
f 110//223 111//224 67//225
f 112//226 110//222 71//100
f 27//36 97//227 109//228
f 25//34 109//228 108//218
f 109//216 97//217 57//81
f 27//36 109//228 25//34
f 27//72 95//157 97//159
f 24//33 26//35 65//229
f 24//33 50//230 27//36
f 50//230 24//33 72//231
f 73//102 51//71 50//70
f 99//210 103//212 101//208
f 51//71 73//102 106//206
f 98//232 106//206 73//102
f 99//210 101//208 106//207
f 113//233 73//102 72//101
f 20//113 65//88 66//90
f 21//28 20//27 66//91
f 76//107 22//211 99//210
f 72//231 65//229 78//234
f 72//231 24//33 65//229
f 114//235 80//170 115//236
f 115//236 116//237 114//235
f 115//236 117//238 118//239
f 116//237 115//236 118//239
f 116//240 71//100 70//99
f 112//226 71//100 116//240
f 74//105 76//107 99//210
f 47//66 119//241 120//242
f 121//243 72//231 78//234
f 98//232 73//102 113//233
f 77//244 20//27 122//245
f 20//27 123//246 122//245
f 76//107 123//247 22//211
f 20//27 22//29 123//246
f 121//248 113//233 72//101
f 75//106 123//247 76//107
f 124//249 121//243 78//234
f 125//250 121//243 124//249
f 125//251 126//252 113//233
f 113//233 121//248 125//251
f 127//253 74//105 98//173
f 113//233 127//254 98//232
f 98//173 99//174 106//255
f 124//249 78//234 77//256
f 77//244 122//245 19//26
f 123//247 128//257 63//258
f 123//246 63//86 19//26
f 122//245 123//246 19//26
f 128//257 123//247 75//106
f 49//69 124//249 77//256
f 126//252 127//254 113//233
f 118//239 128//257 129//259
f 118//239 117//238 128//257
f 129//259 128//257 75//106
f 49//69 125//250 124//249
f 125//260 49//261 130//262
f 131//263 126//252 130//264
f 130//264 126//252 125//251
f 129//259 75//106 74//105
f 129//265 112//226 132//266
f 129//259 74//105 127//253
f 112//226 129//265 131//263
f 126//252 131//263 127//254
f 127//254 131//263 129//265
f 49//69 77//256 18//68
f 77//244 19//26 18//25
f 17//24 19//26 63//86
f 64//169 63//258 117//238
f 117//238 63//258 128//257
f 133//267 130//262 49//261
f 111//224 130//262 133//267
f 111//268 131//263 130//264
f 118//239 129//259 132//269
f 116//237 118//239 132//269
f 34//270 90//150 92//149
f 64//169 117//238 115//236
f 67//271 133//272 48//67
f 67//225 111//224 133//267
f 133//272 49//69 48//67
f 112//226 111//268 110//222
f 131//263 111//268 112//226
f 134//273 79//115 119//274
f 119//274 79//115 68//95
f 119//241 47//66 135//275
f 134//276 135//277 17//24
f 47//65 17//24 135//277
f 79//119 134//276 17//24
f 79//119 17//24 64//87
f 80//170 64//169 115//236
f 67//94 120//278 68//95
f 120//242 67//271 48//67
f 120//242 48//67 47//66
f 68//95 79//115 81//117
f 68//95 81//117 70//97
f 81//117 80//116 114//279
f 81//117 114//279 136//280
f 81//117 136//280 70//97
f 136//281 116//240 70//99
f 136//282 114//235 116//237
f 132//266 112//226 116//240
f 135//283 134//273 119//274
f 69//284 110//223 67//225
f 68//95 120//278 119//274
f 1//14 23//30 11//15
f 23//30 9//61 11//15
f 23//30 8//285 9//61
f 23//30 7//32 8//285
f 34//286 33//287 88//143
f 33//287 89//144 88//143
f 88//288 90//288 34//288
f 54//75 60//103 4//78
f 54//289 59//289 60//289
f 59//152 54//290 92//149
o branch.024_Plane.024
v -2.291105 2.574611 0.124570
v -2.288958 2.701462 0.124148
v -2.296498 2.574280 -0.002185
v -2.294351 2.701131 -0.002608
vn -0.9990 0.0170 0.0425
s off
f 137//291 138//291 140//291 139//291
