# Blender v2.78 (sub 0) OBJ File: 'sketchingparts_v1.blend'
# www.blender.org
o part_002_NostalgiaMotor.lwo.002
v 2.495000 -0.293783 -0.024833
v 2.495000 -0.331103 -0.040293
v 2.495000 -0.363153 -0.064883
v 2.495000 -0.387743 -0.096943
v 2.495000 -0.403203 -0.134263
v 2.495000 -0.408473 -0.174323
v 2.495000 -0.403203 -0.214363
v 2.495000 -0.387743 -0.251683
v 2.495000 -0.363153 -0.283743
v 2.495000 -0.331103 -0.308333
v 2.495000 -0.293783 -0.323793
v 2.495000 -0.253723 -0.329063
v 2.495000 -0.213673 -0.323793
v 2.495000 -0.176353 -0.308333
v 2.495000 -0.144303 -0.283743
v 2.495000 -0.119713 -0.251683
v 2.495000 -0.104253 -0.214363
v 2.495000 -0.098973 -0.174323
v 2.495000 -0.104253 -0.134263
v 2.495000 -0.119713 -0.096943
v 2.495000 -0.144303 -0.064883
v 2.495000 -0.176353 -0.040293
v 2.495000 -0.213673 -0.024833
v 2.495000 -0.253723 -0.019563
v -0.406860 -0.213673 -0.024833
v -0.406860 -0.253723 -0.019563
v -0.406860 -0.176353 -0.040293
v -0.406860 -0.144303 -0.064883
v -0.406860 -0.119713 -0.096943
v -0.406860 -0.104253 -0.134263
v -0.406860 -0.098973 -0.174323
v -0.406860 -0.104253 -0.214363
v -0.406860 -0.119713 -0.251683
v -0.406860 -0.144303 -0.283743
v -0.406860 -0.176353 -0.308333
v -0.406860 -0.213673 -0.323793
v -0.406860 -0.253723 -0.329063
v -0.406860 -0.293783 -0.323793
v -0.406860 -0.331103 -0.308333
v -0.406860 -0.363153 -0.283743
v -0.406860 -0.387743 -0.251683
v -0.406860 -0.403203 -0.214363
v -0.406860 -0.408473 -0.174323
v -0.406860 -0.403203 -0.134263
v -0.406860 -0.387743 -0.096943
v -0.406860 -0.363153 -0.064883
v -0.406860 -0.331103 -0.040293
v -0.406860 -0.293783 -0.024833
v 0.275450 0.385396 0.455687
v 0.275450 0.329817 0.421147
v 0.275450 0.282087 0.366227
v 0.275450 0.245467 0.294627
v 0.275450 0.222447 0.211267
v 0.275450 0.214597 0.121797
v 0.275450 0.222447 0.032337
v 0.275450 0.245467 -0.051033
v 0.275450 0.282087 -0.122623
v 0.275450 0.329817 -0.177553
v 0.275450 0.385397 -0.212093
v 0.275450 0.445037 -0.223863
v 0.275450 0.504687 -0.212093
v 0.275450 0.560266 -0.177553
v 0.275450 0.607987 -0.122623
v 0.275450 0.644607 -0.051033
v 0.275450 0.667627 0.032337
v 0.275450 0.675487 0.121797
v 0.275450 0.667627 0.211267
v 0.275450 0.644607 0.294627
v 0.275450 0.607987 0.366227
v 0.275450 0.560266 0.421147
v 0.275450 0.504687 0.455687
v 0.275450 0.445037 0.467467
v 0.083410 0.504687 0.455687
v 0.083410 0.445037 0.467467
v 0.083410 0.560266 0.421147
v 0.083410 0.607987 0.366227
v 0.083410 0.644607 0.294627
v 0.083410 0.667627 0.211267
v 0.083410 0.675487 0.121797
v 0.083410 0.667627 0.032337
v 0.083410 0.644607 -0.051033
v 0.083410 0.607987 -0.122623
v 0.083410 0.560266 -0.177553
v 0.083410 0.504687 -0.212093
v 0.083410 0.445037 -0.223863
v 0.083410 0.385397 -0.212093
v 0.083410 0.329817 -0.177553
v 0.083410 0.282087 -0.122623
v 0.083410 0.245467 -0.051033
v 0.083410 0.222447 0.032337
v 0.083410 0.214597 0.121797
v 0.083410 0.222447 0.211267
v 0.083410 0.245467 0.294627
v 0.083410 0.282087 0.366227
v 0.083410 0.329817 0.421147
v 0.083410 0.385396 0.455687
v -0.000030 -0.227423 0.199557
v -0.000030 -0.356494 0.096147
v -0.000030 -0.456183 -0.014523
v -0.000030 -0.519693 -0.124923
v -0.000030 -0.542703 -0.227523
v -0.000030 -0.523633 -0.315343
v -0.000030 -0.463803 -0.382373
v -0.000030 -0.367273 -0.424073
v -0.000030 -0.240623 -0.437583
v -0.000030 -0.092493 -0.421983
v -0.000030 0.067027 -0.378343
v -0.000030 0.227067 -0.309643
v -0.000030 0.376727 -0.220543
v -0.000030 0.505797 -0.117143
v -0.000030 0.605477 -0.006463
v -0.000030 0.668997 0.103937
v -0.000030 0.691997 0.206537
v -0.000030 0.672937 0.294347
v -0.000030 0.613097 0.361377
v -0.000030 0.516567 0.403077
v -0.000030 0.389927 0.416587
v -0.000030 0.241796 0.400987
v -0.000030 0.082267 0.357347
v -0.000030 -0.077773 0.288647
v -0.111940 0.082267 0.357347
v -0.111940 -0.077773 0.288647
v -0.111940 0.241796 0.400987
v -0.111940 0.389927 0.416587
v -0.111940 0.516567 0.403077
v -0.111940 0.613097 0.361377
v -0.111940 0.672937 0.294347
v -0.111940 0.691997 0.206537
v -0.111940 0.668997 0.103937
v -0.111940 0.605477 -0.006463
v -0.111940 0.505797 -0.117143
v -0.111940 0.376727 -0.220543
v -0.111940 0.227067 -0.309643
v -0.111940 0.067027 -0.378343
v -0.111940 -0.092493 -0.421983
v -0.111940 -0.240623 -0.437583
v -0.111940 -0.367273 -0.424073
v -0.111940 -0.463803 -0.382373
v -0.111940 -0.523633 -0.315343
v -0.111940 -0.542703 -0.227523
v -0.111940 -0.519693 -0.124923
v -0.111940 -0.456183 -0.014523
v -0.111940 -0.356494 0.096147
v -0.111940 -0.227423 0.199557
vn 1.0000 0.0000 0.0000
vn 0.0000 -0.4540 0.8910
vn 0.0000 -0.3300 0.9440
vn 0.0000 -0.1849 0.9828
vn 0.0000 0.0007 1.0000
vn 0.0000 0.2542 0.9671
vn 0.0000 0.3966 0.9180
vn 0.0000 0.7460 0.6660
vn 0.0000 0.9772 0.2121
vn 0.0000 0.9758 -0.2187
vn 0.0000 0.9319 -0.3628
vn 0.0000 0.8094 -0.5872
vn 0.0000 0.6864 -0.7272
vn 0.0000 0.5698 -0.8218
vn 0.0000 0.4540 -0.8910
vn 0.0000 0.3300 -0.9440
vn 0.0000 0.1849 -0.9828
vn 0.0000 -0.0007 -1.0000
vn 0.0000 -0.2542 -0.9672
vn 0.0000 -0.3966 -0.9180
vn 0.0000 -0.7460 -0.6659
vn 0.0000 -0.9772 -0.2122
vn 0.0000 -0.9758 0.2188
vn 0.0000 -0.9318 0.3629
vn 0.0000 -0.8094 0.5872
vn 0.0000 -0.6864 0.7272
vn 0.0000 -0.5698 0.8218
vn -1.0000 0.0000 0.0000
vn 0.0000 0.0000 1.0000
vn 0.0000 0.2588 0.9659
vn 0.0000 0.5000 0.8660
vn 0.0000 0.7072 0.7071
vn 0.0000 0.8661 0.4999
vn 0.0000 0.9659 0.2589
vn 0.0000 1.0000 -0.0000
vn 0.0000 0.9659 -0.2589
vn 0.0000 0.8661 -0.4999
vn 0.0000 0.7072 -0.7071
vn 0.0000 0.5000 -0.8660
vn 0.0000 0.2588 -0.9659
vn 0.0000 0.0000 -1.0000
vn 0.0000 -0.2588 -0.9659
vn 0.0000 -0.5000 -0.8660
vn 0.0000 -0.7072 -0.7071
vn 0.0000 -0.8661 -0.4999
vn 0.0000 -0.9659 -0.2588
vn 0.0000 -1.0000 -0.0000
vn 0.0000 -0.9659 0.2588
vn 0.0000 -0.8661 0.4999
vn 0.0000 -0.7072 0.7071
vn 0.0000 -0.5000 0.8660
vn 0.0000 -0.2588 0.9659
vn 0.0000 0.3667 0.9303
vn 0.0000 0.6486 0.7611
vn 0.0000 0.8287 0.5597
vn 0.0000 0.9319 0.3626
vn 0.0000 0.9841 0.1776
vn 0.0000 0.9841 -0.1776
vn 0.0000 0.9319 -0.3627
vn 0.0000 0.8287 -0.5597
vn 0.0000 0.6486 -0.7611
vn 0.0000 0.3667 -0.9304
vn 0.0000 -0.3667 -0.9303
vn 0.0000 -0.6486 -0.7611
vn 0.0000 -0.8287 -0.5598
vn 0.0000 -0.9319 -0.3627
vn 0.0000 -0.9841 -0.1775
vn 0.0000 -0.9841 0.1775
vn 0.0000 -0.9319 0.3626
vn 0.0000 -0.8286 0.5598
vn 0.0000 -0.6486 0.7612
vn 0.0000 -0.3668 0.9303
s 1
f 97//1 98//1 99//1 100//1 101//1 102//1 103//1 104//1 105//1 106//1 107//1 108//1 109//1 110//1 111//1 112//1 113//1 114//1 115//1 116//1 117//1 118//1 119//1 120//1
f 120//2 119//3 121//3 122//2
f 119//3 118//4 123//4 121//3
f 118//4 117//5 124//5 123//4
f 117//5 116//6 125//6 124//5
f 116//6 115//7 126//7 125//6
f 115//8 114//8 127//8 126//8
f 127//9 114//9 113//9 128//9
f 128//10 113//10 112//11 129//11
f 129//11 112//11 111//12 130//12
f 130//12 111//12 110//13 131//13
f 131//13 110//13 109//14 132//14
f 132//14 109//14 108//15 133//15
f 133//15 108//15 107//16 134//16
f 134//16 107//16 106//17 135//17
f 135//17 106//17 105//18 136//18
f 136//18 105//18 104//19 137//19
f 137//19 104//19 103//20 138//20
f 138//21 103//21 102//21 139//21
f 102//22 101//22 140//22 139//22
f 101//23 100//24 141//24 140//23
f 100//24 99//25 142//25 141//24
f 99//25 98//26 143//26 142//25
f 98//26 97//27 144//27 143//26
f 97//27 120//2 122//2 144//27
f 121//28 123//28 124//28 125//28 126//28 127//28 128//28 129//28 130//28 131//28 132//28 133//28 134//28 135//28 136//28 137//28 138//28 139//28 140//28 141//28 142//28 143//28 144//28 122//28
f 1//1 2//1 3//1 4//1 5//1 6//1 7//1 8//1 9//1 10//1 11//1 12//1 13//1 14//1 15//1 16//1 17//1 18//1 19//1 20//1 21//1 22//1 23//1 24//1
f 24//29 23//30 25//30 26//29
f 23//30 22//31 27//31 25//30
f 22//31 21//32 28//32 27//31
f 21//32 20//33 29//33 28//32
f 20//33 19//34 30//34 29//33
f 19//34 18//35 31//35 30//34
f 31//35 18//35 17//36 32//36
f 32//36 17//36 16//37 33//37
f 33//37 16//37 15//38 34//38
f 34//38 15//38 14//39 35//39
f 35//39 14//39 13//40 36//40
f 36//40 13//40 12//41 37//41
f 37//41 12//41 11//42 38//42
f 38//42 11//42 10//43 39//43
f 39//43 10//43 9//44 40//44
f 40//44 9//44 8//45 41//45
f 41//45 8//45 7//46 42//46
f 42//46 7//46 6//47 43//47
f 6//47 5//48 44//48 43//47
f 5//48 4//49 45//49 44//48
f 4//49 3//50 46//50 45//49
f 3//50 2//51 47//51 46//50
f 2//51 1//52 48//52 47//51
f 1//52 24//29 26//29 48//52
f 25//28 27//28 28//28 29//28 30//28 31//28 32//28 33//28 34//28 35//28 36//28 37//28 38//28 39//28 40//28 41//28 42//28 43//28 44//28 45//28 46//28 47//28 48//28 26//28
f 49//1 50//1 51//1 52//1 53//1 54//1 55//1 56//1 57//1 58//1 59//1 60//1 61//1 62//1 63//1 64//1 65//1 66//1 67//1 68//1 69//1 70//1 71//1 72//1
f 72//29 71//53 73//53 74//29
f 71//53 70//54 75//54 73//53
f 70//54 69//55 76//55 75//54
f 69//55 68//56 77//56 76//55
f 68//56 67//57 78//57 77//56
f 67//57 66//35 79//35 78//57
f 79//35 66//35 65//58 80//58
f 80//58 65//58 64//59 81//59
f 81//59 64//59 63//60 82//60
f 82//60 63//60 62//61 83//61
f 83//61 62//61 61//62 84//62
f 84//62 61//62 60//41 85//41
f 85//41 60//41 59//63 86//63
f 86//63 59//63 58//64 87//64
f 87//64 58//64 57//65 88//65
f 88//65 57//65 56//66 89//66
f 89//66 56//66 55//67 90//67
f 90//67 55//67 54//47 91//47
f 54//47 53//68 92//68 91//47
f 53//68 52//69 93//69 92//68
f 52//69 51//70 94//70 93//69
f 51//70 50//71 95//71 94//70
f 50//71 49//72 96//72 95//71
f 49//72 72//29 74//29 96//72
f 73//28 75//28 76//28 77//28 78//28 79//28 80//28 81//28 82//28 83//28 84//28 85//28 86//28 87//28 88//28 89//28 90//28 91//28 92//28 93//28 94//28 95//28 96//28 74//28
