# Blender v2.78 (sub 0) OBJ File: 'sketchingparts_v1.blend'
# www.blender.org
o part_007_NostalgiaMotor.lwo.007
v 0.501390 -1.185570 0.106740
v 0.449530 -1.185570 0.231930
v 0.367040 -1.185570 0.339430
v 0.259540 -1.185570 0.421930
v 0.134350 -1.185570 0.473779
v 0.000000 -1.185570 0.491470
v -0.134350 -1.185570 0.473779
v -0.259540 -1.185570 0.421930
v -0.367040 -1.185570 0.339430
v -0.449530 -1.185570 0.231930
v -0.501390 -1.185570 0.106740
v -0.519070 -1.185570 -0.027610
v -0.501390 -1.185570 -0.161950
v -0.449530 -1.185570 -0.287140
v -0.367040 -1.185570 -0.394650
v -0.259540 -1.185570 -0.477140
v -0.134350 -1.185570 -0.528990
v 0.000000 -1.185570 -0.546680
v 0.134350 -1.185570 -0.528990
v 0.259540 -1.185570 -0.477140
v 0.367040 -1.185570 -0.394650
v 0.449530 -1.185570 -0.287140
v 0.501390 -1.185570 -0.161950
v 0.519080 -1.185570 -0.027610
v 0.151840 1.185230 -0.039240
v 0.136680 1.185180 -0.076839
v 0.112200 1.185140 -0.109250
v 0.080050 1.185120 -0.134209
v 0.042470 1.185100 -0.149930
v 0.002050 1.185090 -0.155300
v -0.038360 1.185100 -0.149930
v -0.075950 1.185120 -0.134209
v -0.108090 1.185150 -0.109250
v -0.132570 1.185180 -0.076830
v -0.147730 1.185230 -0.039240
v -0.152580 1.185290 0.000890
v -0.146860 1.185360 0.040791
v -0.131070 1.185420 0.077740
v -0.106350 1.185480 0.109281
v -0.074440 1.185530 0.133360
v -0.037480 1.185560 0.148441
v 0.002050 1.185570 0.153570
v 0.041590 1.185560 0.148441
v 0.078540 1.185530 0.133360
v 0.110460 1.185480 0.109290
v 0.135170 1.185420 0.077740
v 0.150970 1.185360 0.040791
v 0.156680 1.185290 0.000890
v 0.501390 -0.257000 -0.161950
v 0.501390 0.238500 -0.161950
v 0.519080 0.238750 -0.027610
v 0.519080 -0.257280 -0.027610
v 0.449530 -0.256170 -0.287140
v 0.449530 0.237770 -0.287140
v 0.367040 -0.254860 -0.394650
v 0.367040 0.236610 -0.394649
v 0.259540 -0.253160 -0.477140
v 0.259540 0.235090 -0.477139
v 0.134350 -0.251170 -0.528990
v 0.134350 0.233330 -0.528990
v 0.000000 -0.249040 -0.546680
v 0.000000 0.231440 -0.546679
v -0.134350 -0.246900 -0.528990
v -0.134350 0.229550 -0.528990
v -0.259540 -0.244920 -0.477140
v -0.259540 0.227780 -0.477139
v -0.367040 -0.243210 -0.394650
v -0.367040 0.226270 -0.394649
v -0.449530 -0.241900 -0.287140
v -0.449530 0.225110 -0.287140
v -0.501390 -0.241080 -0.161950
v -0.501390 0.224380 -0.161950
v -0.519070 -0.240800 -0.027610
v -0.519070 0.224130 -0.027610
v -0.501390 -0.241080 0.106740
v -0.501390 0.224380 0.106740
v -0.449530 -0.241900 0.231930
v -0.449530 0.225110 0.231930
v -0.367040 -0.243210 0.339430
v -0.367040 0.226270 0.339430
v -0.259540 -0.244920 0.421930
v -0.134350 -0.246900 0.473780
v 0.000000 -0.249040 0.491470
v 0.134350 -0.251170 0.473780
v 0.259540 -0.253160 0.421930
v 0.367040 -0.254860 0.339430
v 0.449530 -0.256170 0.231930
v 0.367040 0.236610 0.339430
v 0.449530 0.237770 0.231930
v 0.501390 -0.257000 0.106740
v 0.501390 0.238500 0.106740
v -0.367040 -0.243210 0.625725
v -0.259540 -0.244920 0.625725
v -0.367040 0.226270 0.625725
v -0.259540 0.227780 0.625725
v -0.259540 0.227780 0.421930
v -0.134350 -0.246900 0.625725
v -0.134350 0.229550 0.625725
v -0.134350 0.229550 0.473780
v 0.000000 -0.249040 0.625725
v 0.000000 0.231440 0.625725
v 0.000000 0.231440 0.491470
v 0.134350 -0.251170 0.625725
v 0.134350 0.233330 0.625725
v 0.134350 0.233330 0.473780
v 0.259540 -0.253160 0.625725
v 0.259540 0.235090 0.625725
v 0.259540 0.235090 0.421930
v 0.367040 0.236610 0.625725
v 0.367040 -0.254860 0.625725
v 0.519080 0.723130 -0.027610
v 0.501390 0.723340 -0.161950
v 0.584350 0.723340 -0.184180
v 0.584350 0.814430 -0.184180
v 0.604960 0.814430 -0.027610
v 0.604960 0.723130 -0.027610
v 0.449530 0.723960 -0.287140
v 0.523910 0.723960 -0.330089
v 0.523910 0.814430 -0.330089
v 0.367040 0.724940 -0.394649
v 0.427770 0.724940 -0.455379
v 0.427770 0.814430 -0.455379
v 0.259540 0.726220 -0.477139
v 0.302480 0.726220 -0.551520
v 0.302480 0.814430 -0.551520
v 0.134350 0.727710 -0.528990
v 0.156580 0.727710 -0.611950
v 0.156580 0.814430 -0.611950
v 0.000000 0.729310 -0.546679
v 0.000000 0.729310 -0.632570
v 0.000000 0.814430 -0.632570
v -0.134350 0.730910 -0.528990
v -0.156570 0.730910 -0.611950
v -0.156570 0.814430 -0.611950
v -0.259540 0.732400 -0.477139
v -0.302480 0.732400 -0.551520
v -0.302480 0.814430 -0.551520
v -0.367040 0.733680 -0.394649
v -0.427770 0.733680 -0.455379
v -0.427770 0.814430 -0.455379
v -0.449530 0.734660 -0.287140
v -0.523910 0.734660 -0.330089
v -0.523910 0.814430 -0.330089
v -0.501390 0.735280 -0.161950
v -0.584340 0.735280 -0.184180
v -0.584340 0.814430 -0.184180
v -0.519070 0.735490 -0.027610
v -0.604960 0.735490 -0.027610
v -0.604960 0.814430 -0.027610
v -0.501390 0.735280 0.106740
v -0.584340 0.735280 0.128970
v -0.584340 0.814430 0.128970
v -0.449530 0.734660 0.231930
v -0.523910 0.734660 0.274870
v -0.523910 0.814430 0.274870
v -0.367040 0.733680 0.339430
v -0.427770 0.733680 0.400160
v -0.427770 0.814430 0.400160
v -0.259540 0.732400 0.421930
v -0.302480 0.732400 0.496300
v -0.302480 0.814430 0.496300
v -0.134350 0.730910 0.473780
v -0.156570 0.730910 0.556740
v -0.156570 0.814430 0.556740
v 0.000000 0.729310 0.491470
v 0.000000 0.729310 0.577350
v 0.000000 0.814430 0.577350
v 0.156580 0.727710 0.556740
v 0.156580 0.814430 0.556740
v 0.134350 0.727710 0.473780
v 0.302480 0.726220 0.496300
v 0.302480 0.814430 0.496300
v 0.259540 0.726220 0.421930
v 0.427770 0.724940 0.400160
v 0.427770 0.814430 0.400160
v 0.367040 0.724940 0.339430
v 0.523910 0.723960 0.274870
v 0.523910 0.814430 0.274870
v 0.449530 0.723960 0.231930
v 0.584350 0.723340 0.128970
v 0.584350 0.814430 0.128970
v 0.501390 0.723340 0.106740
v 0.519080 0.900310 -0.027610
v 0.501390 0.900310 0.106740
v 0.449530 0.900310 0.231930
v 0.367040 0.900310 0.339430
v 0.259540 0.900310 0.421930
v 0.134350 0.900310 0.473780
v 0.000000 0.900310 0.491470
v -0.134350 0.900310 0.473780
v -0.259540 0.900310 0.421930
v -0.367040 0.900310 0.339430
v -0.449530 0.900310 0.231930
v -0.501390 0.900310 0.106740
v -0.519070 0.900310 -0.027610
v -0.501390 0.900310 -0.161950
v -0.449530 0.900310 -0.287140
v -0.367040 0.900310 -0.394649
v -0.259540 0.900310 -0.477139
v -0.134350 0.900310 -0.528990
v 0.000000 0.900310 -0.546679
v 0.134350 0.900310 -0.528990
v 0.259540 0.900310 -0.477139
v 0.367040 0.900310 -0.394649
v 0.449530 0.900310 -0.287140
v 0.501390 0.900310 -0.161950
v 0.288480 0.946590 -0.000709
v 0.278650 0.946590 0.073960
v 0.249820 0.946590 0.143530
v 0.203980 0.946590 0.203281
v 0.144230 0.946590 0.249130
v 0.074650 0.946590 0.277950
v -0.000020 0.946590 0.287780
v -0.074680 0.946590 0.277950
v -0.144260 0.946590 0.249130
v -0.204010 0.946590 0.203281
v -0.249860 0.946590 0.143530
v -0.278680 0.946590 0.073960
v -0.288510 0.946590 -0.000709
v -0.278680 0.946590 -0.075380
v -0.249860 0.946590 -0.144959
v -0.204010 0.946590 -0.204710
v -0.144260 0.946590 -0.250550
v -0.074680 0.946590 -0.279370
v -0.000020 0.946590 -0.289200
v 0.074650 0.946590 -0.279370
v 0.144230 0.946590 -0.250550
v 0.203980 0.946590 -0.204710
v 0.249820 0.946590 -0.144959
v 0.278650 0.946590 -0.075380
v 0.150970 1.056530 0.040791
v 0.156680 1.056470 0.000890
v 0.135170 1.056590 0.077740
v 0.110460 1.056650 0.109290
v 0.078540 1.056700 0.133360
v 0.041590 1.056740 0.148441
v 0.002050 1.056750 0.153570
v -0.037480 1.056740 0.148441
v -0.074440 1.056700 0.133360
v -0.106350 1.056650 0.109281
v -0.131070 1.056590 0.077740
v -0.146860 1.056530 0.040791
v -0.152580 1.056470 0.000890
v -0.147730 1.056410 -0.039240
v -0.132570 1.056360 -0.076830
v -0.108090 1.056320 -0.109250
v -0.075950 1.056290 -0.134209
v -0.038360 1.056270 -0.149930
v 0.002050 1.056270 -0.155300
v 0.042470 1.056270 -0.149930
v 0.080050 1.056290 -0.134209
v 0.112200 1.056320 -0.109250
v 0.136680 1.056360 -0.076839
v 0.151840 1.056410 -0.039240
vn 0.0000 0.0000 1.0000
vn 0.0000 -1.0000 -0.0000
vn 1.0000 0.0000 0.0000
vn 0.9659 0.0000 -0.2588
vn 0.8660 0.0000 -0.5000
vn 0.7071 0.0000 -0.7071
vn 0.5000 0.0000 -0.8660
vn 0.2588 0.0000 -0.9659
vn 0.0000 0.0000 -1.0000
vn -0.2588 0.0000 -0.9659
vn -0.5000 0.0000 -0.8660
vn -0.7071 0.0000 -0.7071
vn -0.8660 0.0000 -0.5000
vn -0.9659 0.0000 -0.2588
vn -1.0000 0.0000 -0.0000
vn -0.9659 -0.0000 0.2588
vn -0.8660 -0.0000 0.5000
vn -0.7071 -0.0000 0.7071
vn -0.7378 -0.0000 0.6751
vn -0.5000 -0.0000 0.8660
vn -0.5010 -0.0000 0.8654
vn -0.2588 -0.0000 0.9659
vn -0.2600 -0.0000 0.9656
vn -0.0013 -0.0000 1.0000
vn 0.2588 -0.0000 0.9659
vn 0.2576 -0.0000 0.9663
vn 0.5000 -0.0000 0.8660
vn 0.4990 -0.0000 0.8666
vn 0.7071 -0.0000 0.7071
vn 0.7371 -0.0000 0.6758
vn 0.8660 -0.0000 0.5000
vn 0.9659 -0.0000 0.2588
vn 0.9659 0.0000 -0.2591
vn 0.9660 0.0000 -0.2586
vn 0.8658 0.0000 -0.5004
vn 0.8662 0.0000 -0.4996
vn 0.7066 0.0000 -0.7076
vn 0.7075 0.0000 -0.7067
vn 0.4992 0.0000 -0.8665
vn 0.5006 0.0000 -0.8657
vn 0.2579 0.0000 -0.9662
vn 0.2596 0.0000 -0.9657
vn -0.0010 0.0000 -1.0000
vn 0.0008 0.0000 -1.0000
vn -0.2597 0.0000 -0.9657
vn -0.2580 0.0000 -0.9661
vn -0.5007 0.0000 -0.8656
vn -0.4993 0.0000 -0.8664
vn -0.7076 0.0000 -0.7066
vn -0.7067 0.0000 -0.7075
vn -0.8663 0.0000 -0.4996
vn -0.8658 0.0000 -0.5004
vn -0.9660 0.0000 -0.2586
vn -0.9659 -0.0000 -0.2590
vn -0.9660 0.0000 0.2586
vn -0.9659 0.0000 0.2590
vn -0.8663 -0.0000 0.4996
vn -0.8658 0.0000 0.5004
vn -0.7377 -0.0000 0.6751
vn -0.7076 -0.0000 0.7066
vn -0.7067 0.0000 0.7075
vn -0.5009 -0.0000 0.8655
vn -0.5008 -0.0000 0.8656
vn -0.4994 0.0000 0.8664
vn -0.2599 -0.0000 0.9656
vn -0.2597 -0.0000 0.9657
vn -0.2580 0.0000 0.9661
vn -0.0012 -0.0000 1.0000
vn -0.0010 -0.0000 1.0000
vn 0.0008 0.0000 1.0000
vn 0.2596 0.0000 0.9657
vn 0.2577 -0.0000 0.9662
vn 0.2579 -0.0000 0.9662
vn 0.5007 0.0000 0.8656
vn 0.4991 -0.0000 0.8665
vn 0.4993 -0.0000 0.8664
vn 0.7075 0.0000 0.7067
vn 0.7372 -0.0000 0.6757
vn 0.7066 -0.0000 0.7076
vn 0.8662 -0.0000 0.4997
vn 0.8658 -0.0000 0.5004
vn 0.9660 -0.0000 0.2586
vn 0.9659 -0.0000 0.2591
vn 0.7071 0.7071 -0.0000
vn 0.6830 0.7071 0.1830
vn 0.6123 0.7071 0.3536
vn 0.5000 0.7071 0.5000
vn 0.3536 0.7071 0.6124
vn 0.1830 0.7071 0.6830
vn -0.0000 0.7071 0.7071
vn -0.1830 0.7071 0.6830
vn -0.3536 0.7071 0.6124
vn -0.5000 0.7071 0.5000
vn -0.6124 0.7071 0.3536
vn -0.6124 0.7071 0.3535
vn -0.6830 0.7071 0.1830
vn -0.7071 0.7071 -0.0000
vn -0.6830 0.7071 -0.1830
vn -0.6124 0.7071 -0.3535
vn -0.5000 0.7071 -0.5000
vn -0.3535 0.7071 -0.6124
vn -0.1830 0.7071 -0.6830
vn -0.0000 0.7071 -0.7071
vn 0.1830 0.7071 -0.6830
vn 0.3535 0.7071 -0.6124
vn 0.5000 0.7071 -0.5000
vn 0.6123 0.7071 -0.3535
vn 0.6830 0.7071 -0.1830
vn -0.0009 -1.0000 -0.0027
vn -0.0002 -1.0000 -0.0000
vn -0.0028 -1.0000 -0.0046
vn -0.0055 -1.0000 -0.0053
vn -0.0082 -1.0000 -0.0046
vn -0.0101 -0.9999 -0.0027
vn -0.0108 -0.9999 -0.0000
vn -0.0101 -0.9999 0.0027
vn -0.0082 -1.0000 0.0046
vn -0.0055 -1.0000 0.0053
vn -0.0028 -1.0000 0.0046
vn -0.0009 -1.0000 0.0027
vn 0.0000 1.0000 -0.0015
vn 0.1960 0.9793 0.0508
vn 0.1966 0.9805 -0.0017
vn 0.1970 0.9804 0.0021
vn 0.1954 0.9792 0.0546
vn 0.1812 0.9781 0.1027
vn 0.1797 0.9780 0.1061
vn 0.1520 0.9769 0.1500
vn 0.1500 0.9769 0.1524
vn 0.1098 0.9760 0.1881
vn 0.1079 0.9760 0.1894
vn 0.0576 0.9754 0.2129
vn 0.0564 0.9754 0.2133
vn -0.0000 0.9751 0.2216
vn -0.0576 0.9754 0.2129
vn -0.0564 0.9754 0.2133
vn -0.1079 0.9760 0.1894
vn -0.1098 0.9760 0.1881
vn -0.1500 0.9769 0.1525
vn -0.1520 0.9769 0.1500
vn -0.1797 0.9780 0.1061
vn -0.1812 0.9781 0.1028
vn -0.1954 0.9792 0.0546
vn -0.1960 0.9793 0.0508
vn -0.1970 0.9804 0.0021
vn -0.1966 0.9805 -0.0017
vn -0.1854 0.9815 -0.0477
vn -0.1842 0.9816 -0.0509
vn -0.1623 0.9825 -0.0918
vn -0.1606 0.9825 -0.0942
vn -0.1299 0.9832 -0.1281
vn -0.1281 0.9833 -0.1296
vn -0.0905 0.9838 -0.1549
vn -0.0890 0.9838 -0.1556
vn -0.0456 0.9841 -0.1716
vn -0.0464 0.9841 -0.1714
vn 0.0000 0.9842 -0.1769
vn 0.0464 0.9841 -0.1714
vn 0.0456 0.9841 -0.1716
vn 0.0904 0.9838 -0.1549
vn 0.0890 0.9838 -0.1556
vn 0.1281 0.9833 -0.1296
vn 0.1299 0.9832 -0.1281
vn 0.1606 0.9825 -0.0942
vn 0.1623 0.9825 -0.0918
vn 0.1842 0.9816 -0.0509
vn 0.1854 0.9815 -0.0477
vn 0.6177 0.7682 0.1685
vn 0.6180 0.7682 0.1674
vn 0.6403 0.7681 0.0015
vn 0.6403 0.7681 0.0030
vn 0.5527 0.7686 0.3220
vn 0.5531 0.7686 0.3214
vn 0.4503 0.7694 0.4530
vn 0.4505 0.7694 0.4529
vn 0.3178 0.7704 0.5527
vn 0.3175 0.7704 0.5528
vn 0.1644 0.7716 0.6145
vn 0.1636 0.7716 0.6147
vn 0.0007 0.7729 0.6346
vn -0.0006 0.7729 0.6346
vn -0.1639 0.7741 0.6115
vn -0.1623 0.7741 0.6119
vn -0.3155 0.7752 0.5473
vn -0.3139 0.7752 0.5482
vn -0.4452 0.7762 0.4464
vn -0.4438 0.7762 0.4478
vn -0.5446 0.7769 0.3158
vn -0.5436 0.7769 0.3175
vn -0.6071 0.7775 0.1642
vn -0.6067 0.7775 0.1659
vn -0.6286 0.7777 0.0015
vn -0.6286 0.7777 0.0030
vn -0.6076 0.7777 -0.1613
vn -0.6079 0.7777 -0.1603
vn -0.5455 0.7774 -0.3133
vn -0.5458 0.7774 -0.3128
vn -0.4462 0.7768 -0.4444
vn -0.4463 0.7768 -0.4443
vn -0.3163 0.7759 -0.5458
vn -0.3160 0.7759 -0.5460
vn -0.1644 0.7749 -0.6103
vn -0.1636 0.7749 -0.6106
vn -0.0006 0.7737 -0.6336
vn 0.0007 0.7737 -0.6336
vn 0.1657 0.7724 -0.6132
vn 0.1642 0.7724 -0.6136
vn 0.3200 0.7711 -0.5504
vn 0.3184 0.7711 -0.5513
vn 0.4529 0.7700 -0.4495
vn 0.4515 0.7700 -0.4508
vn 0.5550 0.7690 -0.3172
vn 0.5540 0.7690 -0.3189
vn 0.6190 0.7684 -0.1628
vn 0.6185 0.7684 -0.1645
vn 0.9629 -0.0000 0.2699
vn 0.9630 -0.0000 0.2696
vn 0.9999 -0.0000 0.0109
vn 0.9999 -0.0000 0.0112
vn 0.8606 -0.0000 0.5093
vn 0.8607 -0.0000 0.5091
vn 0.7005 -0.0000 0.7136
vn 0.7007 -0.0000 0.7135
vn 0.4940 -0.0000 0.8694
vn 0.4942 -0.0000 0.8694
vn 0.2554 -0.0000 0.9668
vn -0.2554 -0.0000 0.9668
vn -0.2553 -0.0000 0.9669
vn -0.4943 -0.0000 0.8693
vn -0.4941 -0.0000 0.8694
vn -0.7007 -0.0000 0.7135
vn -0.7005 -0.0000 0.7136
vn -0.8607 -0.0000 0.5091
vn -0.8606 -0.0000 0.5093
vn -0.9630 -0.0000 0.2696
vn -0.9629 -0.0000 0.2699
vn -0.9999 0.0000 0.0109
vn -0.9999 0.0000 0.0112
vn -0.9684 0.0000 -0.2493
vn -0.9685 0.0000 -0.2490
vn -0.8702 0.0000 -0.4927
vn -0.8703 0.0000 -0.4925
vn -0.7118 0.0000 -0.7024
vn -0.7119 0.0000 -0.7023
vn -0.5039 0.0000 -0.8637
vn -0.5040 0.0000 -0.8637
vn -0.2610 0.0000 -0.9653
vn -0.2611 0.0000 -0.9653
vn 0.2611 0.0000 -0.9653
vn 0.5040 0.0000 -0.8637
vn 0.5039 0.0000 -0.8638
vn 0.7118 0.0000 -0.7024
vn 0.7117 0.0000 -0.7025
vn 0.8703 0.0000 -0.4925
vn 0.8702 0.0000 -0.4927
vn 0.9685 0.0000 -0.2489
vn 0.9685 0.0000 -0.2491
vn -0.0159 -0.9999 -0.0000
vn -0.0141 0.9999 0.0000
vn -0.0140 0.9999 0.0000
vn -0.0158 -0.9999 -0.0000
s 1
f 110//1 109//1 94//1
f 1//2 2//2 3//2 4//2 5//2 6//2 7//2 8//2 9//2 10//2 11//2 12//2 13//2 14//2 15//2 16//2 17//2 18//2 19//2 20//2 21//2 22//2 23//2 24//2
f 52//3 24//3 23//4 49//4
f 49//4 23//4 22//5 53//5
f 53//5 22//5 21//6 55//6
f 55//6 21//6 20//7 57//7
f 57//7 20//7 19//8 59//8
f 59//8 19//8 18//9 61//9
f 61//9 18//9 17//10 63//10
f 63//10 17//10 16//11 65//11
f 65//11 16//11 15//12 67//12
f 67//12 15//12 14//13 69//13
f 69//13 14//13 13//14 71//14
f 71//14 13//14 12//15 73//15
f 11//16 75//16 73//15 12//15
f 10//17 77//17 75//16 11//16
f 9//18 79//19 77//17 10//17
f 8//20 81//21 79//19 9//18
f 7//22 82//23 81//21 8//20
f 6//1 83//24 82//23 7//22
f 5//25 84//26 83//24 6//1
f 4//27 85//28 84//26 5//25
f 3//29 86//30 85//28 4//27
f 2//31 87//31 86//30 3//29
f 1//32 90//32 87//31 2//31
f 24//3 52//3 90//32 1//32
f 111//3 51//3 50//4 112//33
f 113//34 114//4 115//3 116//3
f 112//33 50//4 54//5 117//35
f 118//36 119//5 114//4 113//34
f 117//35 54//5 56//6 120//37
f 121//38 122//6 119//5 118//36
f 120//37 56//6 58//7 123//39
f 124//40 125//7 122//6 121//38
f 123//39 58//7 60//8 126//41
f 127//42 128//8 125//7 124//40
f 126//41 60//8 62//9 129//43
f 130//44 131//9 128//8 127//42
f 129//43 62//9 64//10 132//45
f 133//46 134//10 131//9 130//44
f 132//45 64//10 66//11 135//47
f 136//48 137//11 134//10 133//46
f 135//47 66//11 68//12 138//49
f 139//50 140//12 137//11 136//48
f 138//49 68//12 70//13 141//51
f 142//52 143//13 140//12 139//50
f 141//51 70//13 72//14 144//53
f 145//54 146//14 143//13 142//52
f 144//53 72//14 74//15 147//15
f 148//15 149//15 146//14 145//54
f 76//16 150//55 147//15 74//15
f 149//15 148//15 151//56 152//16
f 78//17 153//57 150//55 76//16
f 152//16 151//56 154//58 155//17
f 80//59 156//60 153//57 78//17
f 155//17 154//58 157//61 158//18
f 96//62 159//63 156//60 80//59
f 158//18 157//61 160//64 161//20
f 99//65 162//66 159//63 96//62
f 161//20 160//64 163//67 164//22
f 102//68 165//69 162//66 99//65
f 164//22 163//67 166//70 167//1
f 167//1 166//70 168//71 169//25
f 105//72 170//73 165//69 102//68
f 169//25 168//71 171//74 172//27
f 108//75 173//76 170//73 105//72
f 172//27 171//74 174//77 175//29
f 88//78 176//79 173//76 108//75
f 175//29 174//77 177//80 178//31
f 89//31 179//81 176//79 88//78
f 178//31 177//80 180//82 181//32
f 91//32 182//83 179//81 89//31
f 181//32 180//82 116//3 115//3
f 51//3 111//3 182//83 91//32
f 115//84 183//84 184//85 181//85
f 181//85 184//85 185//86 178//86
f 178//86 185//86 186//87 175//87
f 175//87 186//87 187//88 172//88
f 172//88 187//88 188//89 169//89
f 169//89 188//89 189//90 167//90
f 189//90 190//91 164//91 167//90
f 190//91 191//92 161//92 164//91
f 191//92 192//93 158//93 161//92
f 192//93 193//94 155//95 158//93
f 193//94 194//96 152//96 155//95
f 194//96 195//97 149//97 152//96
f 195//97 196//98 146//98 149//97
f 196//98 197//99 143//99 146//98
f 197//99 198//100 140//100 143//99
f 198//100 199//101 137//101 140//100
f 199//101 200//102 134//102 137//101
f 200//102 201//103 131//103 134//102
f 131//103 201//103 202//104 128//104
f 128//104 202//104 203//105 125//105
f 125//105 203//105 204//106 122//106
f 122//106 204//106 205//107 119//107
f 119//107 205//107 206//108 114//108
f 114//108 206//108 183//84 115//84
f 112//109 113//109 116//110 111//110
f 117//111 118//111 113//109 112//109
f 120//112 121//112 118//111 117//111
f 123//113 124//113 121//112 120//112
f 126//114 127//114 124//113 123//113
f 129//115 130//115 127//114 126//114
f 132//116 133//116 130//115 129//115
f 135//117 136//117 133//116 132//116
f 138//118 139//118 136//117 135//117
f 141//119 142//119 139//118 138//118
f 144//120 145//120 142//119 141//119
f 147//110 148//110 145//120 144//120
f 148//110 147//110 150//109 151//109
f 151//109 150//109 153//111 154//111
f 154//111 153//111 156//112 157//112
f 157//112 156//112 159//113 160//113
f 160//113 159//113 162//114 163//114
f 163//114 162//114 165//115 166//115
f 166//115 165//115 170//116 168//116
f 168//116 170//116 173//117 171//117
f 171//117 173//117 176//118 174//118
f 174//118 176//118 179//119 177//119
f 177//119 179//119 182//120 180//120
f 116//110 180//120 182//120 111//110
f 25//121 26//121 27//121 28//121 29//121 30//121 31//121 32//121 33//121 34//121 35//121 36//121 37//121 38//121 39//121 40//121 41//121 42//121 43//121 44//121 45//121 46//121 47//121 48//121
f 184//122 183//123 207//124 208//125
f 185//126 184//122 208//125 209//127
f 186//128 185//126 209//127 210//129
f 187//130 186//128 210//129 211//131
f 188//132 187//130 211//131 212//133
f 213//134 189//134 188//132 212//133
f 190//135 189//134 213//134 214//136
f 215//137 191//138 190//135 214//136
f 216//139 192//140 191//138 215//137
f 217//141 193//142 192//140 216//139
f 218//143 194//144 193//142 217//141
f 219//145 195//146 194//144 218//143
f 220//147 196//148 195//146 219//145
f 221//149 197//150 196//148 220//147
f 222//151 198//152 197//150 221//149
f 223//153 199//154 198//152 222//151
f 200//155 199//154 223//153 224//156
f 201//157 200//155 224//156 225//157
f 226//158 202//159 201//157 225//157
f 227//160 203//161 202//159 226//158
f 204//162 203//161 227//160 228//163
f 205//164 204//162 228//163 229//165
f 206//166 205//164 229//165 230//167
f 183//123 206//166 230//167 207//124
f 231//168 208//169 207//170 232//171
f 233//172 209//173 208//169 231//168
f 234//174 210//175 209//173 233//172
f 235//176 211//177 210//175 234//174
f 236//178 212//179 211//177 235//176
f 237//180 213//181 212//179 236//178
f 214//182 213//181 237//180 238//183
f 215//184 214//182 238//183 239//185
f 216//186 215//184 239//185 240//187
f 217//188 216//186 240//187 241//189
f 218//190 217//188 241//189 242//191
f 219//192 218//190 242//191 243//193
f 220//194 219//192 243//193 244//195
f 221//196 220//194 244//195 245//197
f 222//198 221//196 245//197 246//199
f 223//200 222//198 246//199 247//201
f 224//202 223//200 247//201 248//203
f 225//204 224//202 248//203 249//205
f 250//206 226//207 225//204 249//205
f 251//208 227//209 226//207 250//206
f 252//210 228//211 227//209 251//208
f 253//212 229//213 228//211 252//210
f 254//214 230//215 229//213 253//212
f 232//171 207//170 230//215 254//214
f 47//216 231//217 232//218 48//219
f 46//220 233//221 231//217 47//216
f 45//222 234//223 233//221 46//220
f 44//224 235//225 234//223 45//222
f 43//226 236//226 235//225 44//224
f 42//1 237//1 236//226 43//226
f 238//227 237//1 42//1 41//228
f 239//229 238//227 41//228 40//230
f 240//231 239//229 40//230 39//232
f 241//233 240//231 39//232 38//234
f 242//235 241//233 38//234 37//236
f 243//237 242//235 37//236 36//238
f 244//239 243//237 36//238 35//240
f 245//241 244//239 35//240 34//242
f 246//243 245//241 34//242 33//244
f 247//245 246//243 33//244 32//246
f 248//247 247//245 32//246 31//248
f 249//9 248//247 31//248 30//9
f 29//249 250//249 249//9 30//9
f 28//250 251//251 250//249 29//249
f 27//252 252//253 251//251 28//250
f 26//254 253//255 252//253 27//252
f 25//256 254//257 253//255 26//254
f 48//219 232//218 254//257 25//256
f 49//4 50//4 51//3 52//3
f 53//5 54//5 50//4 49//4
f 55//6 56//6 54//5 53//5
f 57//7 58//7 56//6 55//6
f 59//8 60//8 58//7 57//7
f 61//9 62//9 60//8 59//8
f 63//10 64//10 62//9 61//9
f 65//11 66//11 64//10 63//10
f 67//12 68//12 66//11 65//11
f 69//13 70//13 68//12 67//12
f 71//14 72//14 70//13 69//13
f 73//15 74//15 72//14 71//14
f 74//15 73//15 75//16 76//16
f 76//16 75//16 77//17 78//17
f 78//17 77//17 79//19 80//59
f 88//78 86//30 87//31 89//31
f 89//31 87//31 90//32 91//32
f 91//32 90//32 52//3 51//3
f 92//258 79//258 81//258 93//258
f 94//15 80//15 79//15 92//15
f 95//259 96//259 80//260 94//260
f 93//258 81//258 82//258 97//258
f 98//259 99//259 96//259 95//259
f 97//258 82//258 83//258 100//258
f 101//259 102//259 99//259 98//259
f 100//258 83//258 84//258 103//258
f 104//259 105//259 102//259 101//259
f 103//258 84//258 85//261 106//258
f 107//259 108//259 105//259 104//259
f 86//3 88//3 109//3 110//3
f 106//258 85//261 86//261 110//261
f 109//259 88//259 108//259 107//259
f 94//1 92//1 110//1
