# Blender v2.78 (sub 0) OBJ File: 'sketchingparts_v1.blend'
# www.blender.org
o Cube_Cube.002
v -0.376977 -0.376977 0.376977
v -0.376977 1.284027 0.376977
v -0.376977 -0.376977 -0.376977
v -0.376977 0.376977 -0.376977
v 0.450431 -0.376977 0.483715
v 0.376977 0.376977 0.376977
v 0.376977 -0.376977 -0.376977
v 0.376977 0.376977 -0.376977
v -0.376977 -0.376977 -0.188488
v -0.376977 -0.376977 0.000000
v -0.376977 -0.376977 0.188488
v -0.376977 0.000000 0.376977
v -0.376977 0.188488 0.376977
v -0.376977 1.284027 0.188488
v -0.376977 0.815064 0.000000
v -0.376977 0.376977 -0.188488
v -0.376977 0.188488 -0.324965
v -0.376977 0.000000 -0.324965
v -0.376977 -0.188488 -0.376977
v 0.188488 -0.376977 -0.376977
v 0.000000 -0.376977 -0.376977
v -0.188488 -0.376977 -0.376977
v -0.188488 0.376977 -0.376977
v 0.000000 0.376977 -0.376977
v 0.188488 0.376977 -0.376977
v 0.376977 0.188488 -0.376977
v 0.376977 0.000000 -0.376977
v 0.376977 -0.188488 -0.376977
v 0.450431 -0.376977 0.295227
v 0.376977 -0.376977 0.000000
v 0.376977 -0.376977 -0.188488
v 0.376977 0.376977 -0.188488
v 0.376977 0.376977 0.000000
v 0.376977 0.376977 0.188488
v 0.376977 0.188488 0.376977
v 0.450431 0.000000 0.483715
v 0.450431 -0.188488 0.483715
v -0.188488 -0.376977 0.376977
v 0.000000 -0.376977 0.376977
v 0.261943 -0.376977 0.483715
v 0.188488 0.376977 0.376977
v 0.000000 0.815064 0.376977
v -0.188488 1.284027 0.376977
v 0.188488 0.376977 -0.188488
v 0.188488 0.376977 0.000000
v 0.188488 0.376977 0.188488
v 0.000000 0.376977 -0.188488
v 0.000000 0.815064 0.000000
v 0.000000 0.815064 0.188488
v -0.188488 0.376977 -0.188488
v -0.188488 0.815064 0.000000
v -0.188488 1.284027 0.188488
v -0.264915 -0.445262 -0.264915
v -0.264915 -0.445262 0.000000
v -0.264915 -0.445262 0.264915
v 0.000000 -0.445262 -0.264915
v 0.000000 0.716257 -0.376977
v 0.000000 -0.445262 0.264915
v 0.264915 -0.445262 -0.264915
v 0.264915 -0.445262 0.000000
v 0.264915 -0.445262 0.264915
v 0.261943 -0.188488 0.483715
v 0.000000 -0.188488 0.376977
v -0.188488 -0.188488 0.376977
v 0.261943 0.000000 0.483715
v 0.000000 0.000000 0.376977
v -0.188488 0.000000 0.376977
v 0.188488 0.188488 0.376977
v 0.000000 0.188488 0.376977
v -0.188488 0.188488 0.376977
v 0.376977 -0.188488 -0.188488
v 0.376977 -0.188488 0.000000
v 0.450431 -0.188488 0.295227
v 0.376977 0.000000 -0.188488
v 0.376977 0.000000 0.000000
v 0.450431 0.000000 0.295227
v 0.376977 0.188488 -0.188488
v 0.376977 0.188488 0.000000
v 0.376977 0.188488 0.188488
v -0.188488 -0.188488 -0.376977
v 0.000000 -0.188488 -0.376977
v 0.188488 -0.188488 -0.376977
v -0.188488 0.000000 -0.324965
v 0.000000 0.000000 -0.376977
v 0.188488 0.000000 -0.376977
v -0.188488 0.188488 -0.324965
v 0.000000 0.188488 -0.376977
v 0.188488 0.188488 -0.376977
v -0.376977 -0.188488 0.188488
v -0.376977 -0.188488 0.000000
v -0.376977 -0.188488 -0.188488
v -0.376977 0.000000 0.188488
v -0.376977 0.000000 0.000000
v -0.376977 0.000000 -0.188488
v -0.376977 0.188488 0.188488
v -0.376977 0.188488 0.000000
v -0.376977 0.188488 -0.188488
v -0.264915 0.028131 -0.264915
v -0.264915 0.028131 0.000000
v -0.264915 0.028131 0.264915
v 0.000000 0.028131 -0.264915
v 0.000000 0.028131 0.000000
v 0.000000 0.028131 0.264915
v 0.264915 0.028131 -0.264915
v 0.264915 0.028131 0.000000
v 0.264915 0.028131 0.264915
v 0.188488 0.716257 -0.376977
v 0.188488 0.716257 -0.188488
v 0.000000 0.716257 -0.188488
v -0.376977 0.869135 -0.125674
v -0.376977 0.431049 -0.314163
v -0.188488 0.431049 -0.314163
v -0.188488 0.869135 -0.125674
v -0.492315 -0.376977 0.303826
v -0.492315 -0.376977 0.492315
v -0.492315 -0.188488 0.492315
v -0.492315 0.000000 0.492315
v -0.303826 -0.376977 0.492315
v -0.303826 -0.188488 0.492315
v -0.303826 0.000000 0.492315
v -0.492315 -0.188488 0.303826
v -0.492315 0.000000 0.303826
vn -1.0000 0.0000 0.0000
vn 0.0000 0.0000 -1.0000
vn 1.0000 0.0000 0.0000
vn 0.0000 0.0000 1.0000
vn 0.1643 -0.9726 0.1643
vn 0.0000 1.0000 0.0000
vn 0.9186 0.3952 0.0000
vn 0.9279 0.3729 0.0000
vn 0.6041 0.5198 -0.6041
vn 0.0000 0.3952 -0.9186
vn 0.6147 0.4942 -0.6147
vn 0.0000 0.3729 -0.9279
vn -0.2798 -0.9184 0.2798
vn 0.0000 -0.8539 0.5204
vn -0.0770 -0.9219 0.3798
vn -0.2798 -0.9184 -0.2798
vn -0.5204 -0.8539 0.0000
vn 0.0000 -0.8539 -0.5204
vn 0.2798 -0.9184 -0.2798
vn 0.5204 -0.8539 0.0000
vn 0.4211 -0.9053 -0.0552
vn -0.7071 0.0000 -0.7071
vn 0.0000 -1.0000 0.0000
vn -0.3774 0.0000 0.9261
vn 0.0000 0.4928 0.8702
vn -0.2247 0.2247 0.9482
vn 0.9317 0.3631 0.0000
vn 0.9704 0.0000 -0.2414
vn 0.9777 0.1485 -0.1485
vn 0.0000 0.2660 -0.9640
vn -0.1354 0.1354 -0.9815
vn -0.2660 0.0000 -0.9640
vn 0.0000 -0.2660 -0.9640
vn -0.1354 -0.1354 -0.9815
vn 0.7071 0.0000 0.7071
vn 0.0000 -0.9186 -0.3952
vn 0.0000 0.9186 0.3952
s off
f 97//1 16//1 4//1 17//1
f 88//2 25//2 8//2 26//2
f 79//3 34//3 6//3 35//3
f 70//4 43//4 2//4 13//4
f 61//5 29//5 5//5 40//5
f 52//6 14//6 2//6 43//6
f 34//6 46//6 41//6 6//6
f 46//7 49//7 42//7 41//7
f 49//8 52//8 43//8 42//8
f 8//6 25//6 44//6 32//6
f 32//6 44//6 45//6 33//6
f 33//6 45//6 46//6 34//6
f 24//1 47//1 109//1 57//1
f 44//9 47//9 48//9 45//9
f 45//7 48//7 49//7 46//7
f 24//6 23//6 50//6 47//6
f 47//10 50//10 51//10 48//10
f 48//11 51//11 52//11 49//11
f 23//6 4//6 16//6 50//6
f 16//1 15//1 110//1 111//1
f 51//12 15//12 14//12 52//12
f 11//13 55//13 38//13 1//13
f 55//14 58//14 39//14 38//14
f 58//15 61//15 40//15 39//15
f 3//16 22//16 53//16 9//16
f 9//17 53//17 54//17 10//17
f 10//17 54//17 55//17 11//17
f 22//18 21//18 56//18 53//18
f 58//2 55//2 100//2 103//2
f 59//1 60//1 105//1 104//1
f 21//18 20//18 59//18 56//18
f 55//3 54//3 99//3 100//3
f 56//4 59//4 104//4 101//4
f 20//19 7//19 31//19 59//19
f 59//20 31//20 30//20 60//20
f 60//21 30//21 29//21 61//21
f 92//22 89//22 121//22 122//22
f 1//23 38//23 118//23 115//23
f 67//4 70//4 13//4 12//4
f 5//4 37//4 62//4 40//4
f 40//24 62//24 63//24 39//24
f 39//4 63//4 64//4 38//4
f 37//4 36//4 65//4 62//4
f 62//24 65//24 66//24 63//24
f 63//4 66//4 67//4 64//4
f 36//25 35//25 68//25 65//25
f 65//26 68//26 69//26 66//26
f 66//4 69//4 70//4 67//4
f 35//4 6//4 41//4 68//4
f 68//4 41//4 42//4 69//4
f 69//4 42//4 43//4 70//4
f 29//3 73//3 37//3 5//3
f 73//3 76//3 36//3 37//3
f 76//27 79//27 35//27 36//27
f 7//3 28//3 71//3 31//3
f 31//3 71//3 72//3 30//3
f 30//28 72//28 73//28 29//28
f 28//3 27//3 74//3 71//3
f 71//3 74//3 75//3 72//3
f 72//28 75//28 76//28 73//28
f 27//3 26//3 77//3 74//3
f 74//3 77//3 78//3 75//3
f 75//29 78//29 79//29 76//29
f 26//3 8//3 32//3 77//3
f 77//3 32//3 33//3 78//3
f 78//3 33//3 34//3 79//3
f 20//2 82//2 28//2 7//2
f 82//2 85//2 27//2 28//2
f 85//2 88//2 26//2 27//2
f 3//2 19//2 80//2 22//2
f 22//2 80//2 81//2 21//2
f 21//2 81//2 82//2 20//2
f 19//30 18//30 83//30 80//30
f 80//31 83//31 84//31 81//31
f 81//2 84//2 85//2 82//2
f 18//2 17//2 86//2 83//2
f 83//32 86//32 87//32 84//32
f 84//2 87//2 88//2 85//2
f 17//33 4//33 23//33 86//33
f 86//34 23//34 24//34 87//34
f 87//2 24//2 25//2 88//2
f 9//1 91//1 19//1 3//1
f 91//1 94//1 18//1 19//1
f 94//1 97//1 17//1 18//1
f 38//35 64//35 119//35 118//35
f 11//1 89//1 90//1 10//1
f 10//1 90//1 91//1 9//1
f 11//23 1//23 115//23 114//23
f 89//1 92//1 93//1 90//1
f 90//1 93//1 94//1 91//1
f 12//1 13//1 95//1 92//1
f 92//1 95//1 96//1 93//1
f 93//1 96//1 97//1 94//1
f 13//1 2//1 14//1 95//1
f 95//1 14//1 15//1 96//1
f 96//1 15//1 16//1 97//1
f 98//23 101//23 102//23 99//23
f 99//23 102//23 103//23 100//23
f 101//23 104//23 105//23 102//23
f 102//23 105//23 106//23 103//23
f 53//4 56//4 101//4 98//4
f 54//3 53//3 98//3 99//3
f 60//1 61//1 106//1 105//1
f 61//2 58//2 103//2 106//2
f 107//6 57//6 109//6 108//6
f 25//2 24//2 57//2 107//2
f 44//3 25//3 107//3 108//3
f 47//4 44//4 108//4 109//4
f 112//10 111//10 110//10 113//10
f 51//3 50//3 112//3 113//3
f 50//36 16//36 111//36 112//36
f 15//37 51//37 113//37 110//37
f 118//4 119//4 116//4 115//4
f 119//4 120//4 117//4 116//4
f 115//1 116//1 121//1 114//1
f 116//1 117//1 122//1 121//1
f 64//35 67//35 120//35 119//35
f 67//6 12//6 117//6 120//6
f 12//6 92//6 122//6 117//6
f 89//22 11//22 114//22 121//22
