# Blender v2.78 (sub 0) OBJ File: 'sketchingparts_v2.blend'
# www.blender.org
o seg_pipe.000_Cylinder.009
v 0.000000 0.000000 0.000000
v 0.497688 1.987310 -0.500000
v 0.000000 0.000000 -0.500000
v 0.000000 1.174546 -0.500000
v 0.353553 0.000000 -0.353553
v 0.353553 1.174546 -0.353553
v 0.500000 0.000000 0.000000
v 0.500000 1.174546 0.000000
v 0.353553 0.000000 0.353553
v 0.353553 1.174546 0.353553
v -0.000000 0.000000 0.500000
v -0.000000 1.174546 0.500000
v -0.353553 0.000000 0.353553
v -0.353553 1.174546 0.353553
v -0.500000 0.000000 -0.000000
v -0.500000 1.174546 -0.000000
v -0.353553 0.000000 -0.353553
v -0.353553 1.174546 -0.353553
v 0.105056 1.655592 -0.500000
v 1.595253 2.301323 -0.500000
v 0.396089 1.454843 -0.353553
v 0.516638 1.371691 -0.000000
v 0.396089 1.454843 0.353553
v 0.105056 1.655592 0.500000
v -0.185977 1.856341 0.353553
v -0.306526 1.939494 0.000000
v -0.185977 1.856341 -0.353553
v 2.011564 2.312209 -0.500000
v 0.594938 1.647395 -0.353554
v 0.635220 1.506597 -0.000000
v 0.594938 1.647395 0.353553
v 0.497688 1.987310 0.500000
v 0.400439 2.327226 0.353553
v 0.360157 2.468023 -0.000000
v 0.400439 2.327226 -0.353553
v 2.408922 2.218812 -0.500000
v 1.692503 1.961407 -0.353554
v 1.732785 1.820610 -0.000000
v 1.692503 1.961407 0.353553
v 1.595253 2.301323 0.500000
v 1.498004 2.641238 0.353553
v 1.457722 2.782036 -0.000000
v 1.498004 2.641238 -0.353553
v 3.056946 1.912306 -0.500000
v 2.036634 1.959546 -0.353554
v 2.047018 1.813468 -0.000000
v 2.036634 1.959546 0.353553
v 2.011564 2.312209 0.500000
v 1.986495 2.664873 0.353553
v 1.976111 2.810951 -0.000000
v 1.986495 2.664873 -0.353553
v 3.467705 1.395723 -0.500000
v 2.306481 1.880425 -0.353554
v 2.264048 1.740260 -0.000000
v 2.306481 1.880425 0.353553
v 2.408922 2.218812 0.500000
v 2.511364 2.557199 0.353553
v 2.553797 2.697363 -0.000000
v 2.511364 2.557199 -0.353554
v 3.638052 0.933020 -0.500000
v 2.886872 1.602347 -0.353554
v 2.816425 1.473958 -0.000000
v 2.886872 1.602347 0.353553
v 3.056946 1.912306 0.500000
v 3.227020 2.222266 0.353553
v 3.297467 2.350655 -0.000000
v 3.227020 2.222266 -0.353554
v 3.693379 0.594899 -0.500000
v 3.180990 1.188854 -0.353554
v 3.062229 1.103167 -0.000000
v 3.180990 1.188854 0.353553
v 3.467705 1.395723 0.500000
v 3.754421 1.602591 0.353553
v 3.873182 1.688278 -0.000000
v 3.754421 1.602591 -0.353554
v 3.293532 0.853609 -0.353554
v 3.150827 0.820716 -0.000000
v 3.293532 0.853609 0.353553
v 3.638052 0.933020 0.500000
v 3.982572 1.012430 0.353553
v 4.125277 1.045323 -0.000000
v 3.982572 1.012430 -0.353554
v 3.694658 -1.933853 -0.500000
v 3.339959 0.585198 -0.353554
v 3.193568 0.581180 -0.000000
v 3.339959 0.585198 0.353553
v 3.693379 0.594899 0.500000
v 4.046800 0.604600 0.353553
v 4.193192 0.608618 -0.000000
v 4.046800 0.604600 -0.353554
v 3.721169 -0.417559 -0.500000
v 3.367670 -0.411379 -0.353554
v 3.221246 -0.408818 -0.000000
v 3.367670 -0.411379 0.353553
v 3.721169 -0.417559 0.500000
v 4.074669 -0.423740 0.353553
v 4.221093 -0.426300 -0.000000
v 4.074669 -0.423740 -0.353554
v 3.694658 -1.933853 -0.000000
v 3.341159 -1.927673 -0.353554
v 3.194735 -1.925113 -0.000000
v 3.341159 -1.927673 0.353553
v 3.694658 -1.933853 0.500000
v 4.048158 -1.940034 0.353553
v 4.194582 -1.942594 -0.000000
v 4.048158 -1.940034 -0.353554
vn 0.0000 -1.0000 0.0000
vn -0.9024 0.2252 -0.3672
vn 0.3827 0.0000 -0.9239
vn 0.9248 -0.1146 0.3627
vn 0.9239 0.0000 -0.3827
vn 0.3927 -0.0761 -0.9165
vn 0.9239 0.0000 0.3827
vn -0.9024 0.2252 0.3672
vn 0.3827 0.0000 0.9239
vn 0.9248 -0.1146 -0.3627
vn -0.3827 0.0000 0.9239
vn -0.3883 0.0910 0.9170
vn -0.9239 0.0000 0.3827
vn -0.3883 0.0910 -0.9170
vn -0.9239 0.0000 -0.3827
vn 0.3927 -0.0761 0.9165
vn -0.3827 0.0000 -0.9239
vn 0.2683 -0.3027 -0.9145
vn 0.6703 -0.6498 -0.3583
vn -0.2558 0.3120 -0.9150
vn 0.6703 -0.6498 0.3583
vn 0.2683 -0.3027 0.9145
vn -0.2558 0.3120 0.9150
vn -0.5810 0.7285 0.3629
vn -0.5810 0.7285 -0.3629
vn 0.1053 -0.3679 -0.9239
vn 0.2541 -0.8882 -0.3827
vn -0.1053 0.3679 -0.9239
vn 0.2541 -0.8882 0.3827
vn 0.1053 -0.3679 0.9239
vn -0.1053 0.3679 0.9239
vn -0.2541 0.8882 0.3827
vn -0.2541 0.8882 -0.3827
vn -0.0127 -0.9269 0.3751
vn 0.0046 -0.3888 0.9213
vn -0.0148 0.3872 0.9219
vn -0.0482 0.9244 0.3785
vn -0.0482 0.9244 -0.3785
vn 0.0046 -0.3888 -0.9213
vn -0.0127 -0.9269 -0.3751
vn -0.0148 0.3872 -0.9219
vn 0.1823 0.9085 0.3760
vn 0.1823 0.9085 -0.3760
vn -0.0980 -0.3790 -0.9202
vn -0.2773 -0.8862 -0.3713
vn 0.0831 0.3810 -0.9208
vn -0.2773 -0.8862 0.3713
vn -0.0980 -0.3790 0.9202
vn 0.0831 0.3810 0.9208
vn -0.1654 -0.3475 -0.9230
vn -0.4006 -0.8335 -0.3805
vn 0.1638 0.3481 -0.9230
vn -0.4006 -0.8335 0.3805
vn -0.1654 -0.3475 0.9230
vn 0.1638 0.3481 0.9230
vn 0.3913 0.8378 0.3807
vn 0.3913 0.8378 -0.3807
vn -0.3168 -0.2401 -0.9176
vn -0.7668 -0.5279 -0.3650
vn 0.3046 0.2515 -0.9187
vn -0.7668 -0.5279 0.3650
vn -0.3168 -0.2401 0.9176
vn 0.3046 0.2515 0.9187
vn 0.7037 0.6055 0.3716
vn 0.7037 0.6055 -0.3716
vn -0.3680 -0.1305 0.9206
vn 0.3647 0.1380 0.9208
vn 0.8636 0.3363 0.3757
vn 0.8636 0.3363 -0.3757
vn -0.3680 -0.1305 -0.9206
vn -0.8818 -0.2871 -0.3742
vn 0.3647 0.1380 -0.9208
vn -0.8818 -0.2871 0.3742
vn 0.9135 0.1429 -0.3809
vn -0.3793 -0.0636 -0.9231
vn -0.9108 -0.1599 -0.3807
vn 0.3796 0.0608 -0.9231
vn -0.9108 -0.1599 0.3807
vn -0.3793 -0.0636 0.9231
vn 0.3796 0.0608 0.9231
vn 0.9135 0.1429 0.3809
vn -0.3827 -0.0106 -0.9238
vn -0.9236 -0.0258 -0.3825
vn 0.3827 0.0104 -0.9238
vn -0.9236 -0.0258 0.3825
vn -0.3827 -0.0106 0.9238
vn 0.3827 0.0104 0.9238
vn 0.9236 0.0250 0.3825
vn 0.9236 0.0250 -0.3825
vn -0.9237 0.0162 -0.3827
vn 0.3826 -0.0067 -0.9239
vn -0.9237 0.0162 0.3827
vn -0.3826 0.0067 0.9239
vn 0.3826 -0.0067 0.9239
vn 0.9237 -0.0162 0.3827
vn 0.9237 -0.0162 -0.3827
vn -0.3826 0.0067 -0.9239
vn -0.0175 -0.9998 0.0000
s off
f 1//1 3//1 5//1
f 18//2 16//2 26//2 27//2
f 3//3 4//3 6//3 5//3
f 1//1 5//1 7//1
f 10//4 8//4 22//4 23//4
f 5//5 6//5 8//5 7//5
f 1//1 7//1 9//1
f 6//6 4//6 19//6 21//6
f 7//7 8//7 10//7 9//7
f 1//1 9//1 11//1
f 16//8 14//8 25//8 26//8
f 9//9 10//9 12//9 11//9
f 1//1 11//1 13//1
f 8//10 6//10 21//10 22//10
f 11//11 12//11 14//11 13//11
f 1//1 13//1 15//1
f 14//12 12//12 24//12 25//12
f 13//13 14//13 16//13 15//13
f 1//1 15//1 17//1
f 4//14 18//14 27//14 19//14
f 15//15 16//15 18//15 17//15
f 1//1 17//1 3//1
f 12//16 10//16 23//16 24//16
f 17//17 18//17 4//17 3//17
f 21//18 19//18 2//18 29//18
f 22//19 21//19 29//19 30//19
f 19//20 27//20 35//20 2//20
f 23//21 22//21 30//21 31//21
f 24//22 23//22 31//22 32//22
f 25//23 24//23 32//23 33//23
f 26//24 25//24 33//24 34//24
f 27//25 26//25 34//25 35//25
f 29//26 2//26 20//26 37//26
f 30//27 29//27 37//27 38//27
f 2//28 35//28 43//28 20//28
f 31//29 30//29 38//29 39//29
f 32//30 31//30 39//30 40//30
f 33//31 32//31 40//31 41//31
f 34//32 33//32 41//32 42//32
f 35//33 34//33 42//33 43//33
f 39//34 38//34 46//34 47//34
f 40//35 39//35 47//35 48//35
f 41//36 40//36 48//36 49//36
f 42//37 41//37 49//37 50//37
f 43//38 42//38 50//38 51//38
f 37//39 20//39 28//39 45//39
f 38//40 37//40 45//40 46//40
f 20//41 43//41 51//41 28//41
f 50//42 49//42 57//42 58//42
f 51//43 50//43 58//43 59//43
f 45//44 28//44 36//44 53//44
f 46//45 45//45 53//45 54//45
f 28//46 51//46 59//46 36//46
f 47//47 46//47 54//47 55//47
f 48//48 47//48 55//48 56//48
f 49//49 48//49 56//49 57//49
f 53//50 36//50 44//50 61//50
f 54//51 53//51 61//51 62//51
f 36//52 59//52 67//52 44//52
f 55//53 54//53 62//53 63//53
f 56//54 55//54 63//54 64//54
f 57//55 56//55 64//55 65//55
f 58//56 57//56 65//56 66//56
f 59//57 58//57 66//57 67//57
f 61//58 44//58 52//58 69//58
f 62//59 61//59 69//59 70//59
f 44//60 67//60 75//60 52//60
f 63//61 62//61 70//61 71//61
f 64//62 63//62 71//62 72//62
f 65//63 64//63 72//63 73//63
f 66//64 65//64 73//64 74//64
f 67//65 66//65 74//65 75//65
f 72//66 71//66 78//66 79//66
f 73//67 72//67 79//67 80//67
f 74//68 73//68 80//68 81//68
f 75//69 74//69 81//69 82//69
f 69//70 52//70 60//70 76//70
f 70//71 69//71 76//71 77//71
f 52//72 75//72 82//72 60//72
f 71//73 70//73 77//73 78//73
f 82//74 81//74 89//74 90//74
f 76//75 60//75 68//75 84//75
f 77//76 76//76 84//76 85//76
f 60//77 82//77 90//77 68//77
f 78//78 77//78 85//78 86//78
f 79//79 78//79 86//79 87//79
f 80//80 79//80 87//80 88//80
f 81//81 80//81 88//81 89//81
f 84//82 68//82 91//82 92//82
f 85//83 84//83 92//83 93//83
f 68//84 90//84 98//84 91//84
f 86//85 85//85 93//85 94//85
f 87//86 86//86 94//86 95//86
f 88//87 87//87 95//87 96//87
f 89//88 88//88 96//88 97//88
f 90//89 89//89 97//89 98//89
f 93//90 92//90 100//90 101//90
f 91//91 98//91 106//91 83//91
f 94//92 93//92 101//92 102//92
f 95//93 94//93 102//93 103//93
f 96//94 95//94 103//94 104//94
f 97//95 96//95 104//95 105//95
f 98//96 97//96 105//96 106//96
f 92//97 91//97 83//97 100//97
f 99//98 100//98 83//98
f 99//98 101//98 100//98
f 99//98 102//98 101//98
f 99//98 103//98 102//98
f 99//98 104//98 103//98
f 99//98 105//98 104//98
f 99//98 106//98 105//98
f 99//98 83//98 106//98
o seg_pipe.006_Cylinder.010
v 1.883957 2.298580 -0.009465
v 1.883957 2.298580 1.729066
v 1.883957 2.798580 -0.009465
v 1.883957 2.798580 1.729066
v 2.237510 2.652133 -0.009465
v 2.237510 2.652134 1.729066
v 2.383957 2.298580 -0.009465
v 2.383957 2.298580 1.729066
v 2.237510 1.945027 -0.009465
v 2.237510 1.945027 1.729066
v 1.883957 1.798580 -0.009465
v 1.883957 1.798580 1.729066
v 1.530403 1.945027 -0.009465
v 1.530403 1.945027 1.729066
v 1.383957 2.298580 -0.009465
v 1.383957 2.298580 1.729066
v 1.530403 2.652133 -0.009465
v 1.530403 2.652134 1.729066
vn -0.0000 -0.0000 -1.0000
vn 0.0000 0.0000 1.0000
vn 0.3827 0.9239 -0.0000
vn 0.9239 0.3827 -0.0000
vn 0.9239 -0.3827 0.0000
vn 0.3827 -0.9239 0.0000
vn -0.3827 -0.9239 0.0000
vn -0.9239 -0.3827 0.0000
vn -0.9239 0.3827 -0.0000
vn -0.3827 0.9239 -0.0000
s off
f 107//99 109//99 111//99
f 108//100 112//100 110//100
f 109//101 110//101 112//101 111//101
f 107//99 111//99 113//99
f 108//100 114//100 112//100
f 111//102 112//102 114//102 113//102
f 107//99 113//99 115//99
f 108//100 116//100 114//100
f 113//103 114//103 116//103 115//103
f 107//99 115//99 117//99
f 108//100 118//100 116//100
f 115//104 116//104 118//104 117//104
f 107//99 117//99 119//99
f 108//100 120//100 118//100
f 117//105 118//105 120//105 119//105
f 107//99 119//99 121//99
f 108//100 122//100 120//100
f 119//106 120//106 122//106 121//106
f 107//99 121//99 123//99
f 108//100 124//100 122//100
f 121//107 122//107 124//107 123//107
f 107//99 123//99 109//99
f 108//100 110//100 124//100
f 123//108 124//108 110//108 109//108
o branch.007_Plane.004
v 1.683201 2.101230 1.701776
v 2.083201 2.101230 1.701776
v 1.683201 2.501230 1.701776
v 2.083201 2.501230 1.701776
vn 0.0000 0.0000 1.0000
s off
f 125//109 126//109 128//109 127//109
o branch.008_Plane.005
v 3.538257 -1.934623 -0.180327
v 3.938257 -1.934623 -0.180327
v 3.538257 -1.934623 0.219673
v 3.938257 -1.934623 0.219673
vn 0.0000 -1.0000 0.0000
s off
f 129//110 130//110 132//110 131//110
