# Blender v2.78 (sub 0) OBJ File: 'sketchingparts_v2.blend'
# www.blender.org
o seg_pipe.005_Cylinder.006
v 0.000000 0.000000 0.000000
v 2.084051 3.198844 -0.000000
v 0.000000 0.000000 -0.500000
v 2.084051 3.198844 -0.500000
v 0.353553 0.000000 -0.353553
v 2.247345 2.885259 -0.353554
v 0.500000 0.000000 0.000000
v 2.314983 2.755368 -0.000000
v 0.353553 0.000000 0.353553
v 2.247345 2.885259 0.353553
v -0.000000 0.000000 0.500000
v 2.084051 3.198844 0.500000
v -0.353553 0.000000 0.353553
v 1.920757 3.512428 0.353553
v -0.500000 0.000000 -0.000000
v 1.853119 3.642319 -0.000000
v -0.353553 0.000000 -0.353553
v 1.920757 3.512428 -0.353553
v 0.000000 1.623188 -0.500000
v 0.353553 1.623188 -0.353553
v 0.500000 1.623188 0.000000
v 0.353553 1.623188 0.353553
v -0.000000 1.623188 0.500000
v -0.353553 1.623188 0.353553
v -0.500000 1.623188 -0.000000
v -0.353553 1.623188 -0.353553
v 0.055566 1.918917 -0.500000
v 0.373264 1.763779 -0.353553
v 0.504859 1.699519 -0.000000
v 0.373264 1.763779 0.353553
v 0.055566 1.918917 0.500000
v -0.262132 2.074055 0.353553
v -0.393727 2.138315 0.000000
v -0.262132 2.074055 -0.353553
v 0.412985 2.328664 -0.500000
v 0.576279 2.015080 -0.353553
v 0.643917 1.885189 -0.000000
v 0.576279 2.015080 0.353553
v 0.412985 2.328664 0.500000
v 0.249691 2.642249 0.353553
v 0.182053 2.772140 0.000000
v 0.249691 2.642249 -0.353553
vn 0.0000 -1.0000 0.0000
vn 0.8870 0.4619 0.0000
vn 0.1767 -0.3394 -0.9239
vn 0.4267 -0.8194 -0.3827
vn 0.4267 -0.8194 0.3827
vn 0.1767 -0.3394 0.9239
vn -0.1767 0.3394 0.9239
vn -0.4267 0.8194 0.3827
vn -0.4267 0.8194 -0.3827
vn -0.1767 0.3394 -0.9239
vn -0.3827 0.0000 -0.9239
vn -0.9239 0.0000 -0.3827
vn -0.9239 0.0000 0.3827
vn -0.3827 0.0000 0.9239
vn 0.3827 0.0000 0.9239
vn 0.9239 0.0000 0.3827
vn 0.9239 0.0000 -0.3827
vn 0.3827 0.0000 -0.9239
vn -0.3840 0.0756 -0.9202
vn -0.9085 0.1859 -0.3741
vn -0.9085 0.1859 0.3741
vn -0.3840 0.0756 0.9202
vn 0.3861 -0.0666 0.9201
vn 0.9223 -0.1045 0.3721
vn 0.9223 -0.1045 -0.3721
vn 0.3861 -0.0666 -0.9201
vn -0.2990 0.2658 -0.9165
vn -0.6901 0.6244 -0.3659
vn -0.6901 0.6244 0.3659
vn -0.2990 0.2658 0.9165
vn 0.3055 -0.2590 0.9163
vn 0.7333 -0.5741 0.3642
vn 0.7333 -0.5741 -0.3642
vn 0.3055 -0.2590 -0.9163
s off
f 1//1 3//1 5//1
f 2//2 6//2 4//2
f 35//3 4//3 6//3 36//3
f 1//1 5//1 7//1
f 2//2 8//2 6//2
f 36//4 6//4 8//4 37//4
f 1//1 7//1 9//1
f 2//2 10//2 8//2
f 37//5 8//5 10//5 38//5
f 1//1 9//1 11//1
f 2//2 12//2 10//2
f 38//6 10//6 12//6 39//6
f 1//1 11//1 13//1
f 2//2 14//2 12//2
f 39//7 12//7 14//7 40//7
f 1//1 13//1 15//1
f 2//2 16//2 14//2
f 40//8 14//8 16//8 41//8
f 1//1 15//1 17//1
f 2//2 18//2 16//2
f 41//9 16//9 18//9 42//9
f 1//1 17//1 3//1
f 2//2 4//2 18//2
f 42//10 18//10 4//10 35//10
f 17//11 26//11 19//11 3//11
f 15//12 25//12 26//12 17//12
f 13//13 24//13 25//13 15//13
f 11//14 23//14 24//14 13//14
f 9//15 22//15 23//15 11//15
f 7//16 21//16 22//16 9//16
f 5//17 20//17 21//17 7//17
f 3//18 19//18 20//18 5//18
f 26//19 34//19 27//19 19//19
f 25//20 33//20 34//20 26//20
f 24//21 32//21 33//21 25//21
f 23//22 31//22 32//22 24//22
f 22//23 30//23 31//23 23//23
f 21//24 29//24 30//24 22//24
f 20//25 28//25 29//25 21//25
f 19//26 27//26 28//26 20//26
f 34//27 42//27 35//27 27//27
f 33//28 41//28 42//28 34//28
f 32//29 40//29 41//29 33//29
f 31//30 39//30 40//30 32//30
f 30//31 38//31 39//31 31//31
f 29//32 37//32 38//32 30//32
f 28//33 36//33 37//33 29//33
f 27//34 35//34 36//34 28//34
o seg_pipe.007_Cylinder.008
v 0.053969 1.015360 -0.171345
v -0.544887 1.611465 1.295017
v -0.346708 1.015360 -0.334979
v -0.945563 1.611465 1.131382
v -0.181907 1.344890 -0.403227
v -0.780762 1.940995 1.063134
v 0.121067 1.481386 -0.335642
v -0.477789 2.077491 1.130720
v 0.384735 1.344890 -0.171813
v -0.214120 1.940995 1.294549
v 0.454645 1.015360 -0.007711
v -0.144210 1.611465 1.458651
v 0.289845 0.685830 0.060537
v -0.309011 1.281934 1.526899
v -0.013129 0.549334 -0.007048
v -0.611985 1.145439 1.459313
v -0.276798 0.685830 -0.170877
v -0.875653 1.281934 1.295485
vn 0.3533 -0.3559 -0.8652
vn -0.3533 0.3559 0.8652
vn -0.8261 0.3166 -0.4661
vn -0.2786 0.8447 -0.4571
vn 0.5189 0.8447 -0.1314
vn 0.9162 0.3166 0.2455
vn 0.8261 -0.3166 0.4661
vn 0.2786 -0.8447 0.4571
vn -0.5189 -0.8447 0.1314
vn -0.9162 -0.3166 -0.2455
s off
f 43//35 45//35 47//35
f 44//36 48//36 46//36
f 45//37 46//37 48//37 47//37
f 43//35 47//35 49//35
f 44//36 50//36 48//36
f 47//38 48//38 50//38 49//38
f 43//35 49//35 51//35
f 44//36 52//36 50//36
f 49//39 50//39 52//39 51//39
f 43//35 51//35 53//35
f 44//36 54//36 52//36
f 51//40 52//40 54//40 53//40
f 43//35 53//35 55//35
f 44//36 56//36 54//36
f 53//41 54//41 56//41 55//41
f 43//35 55//35 57//35
f 44//36 58//36 56//36
f 55//42 56//42 58//42 57//42
f 43//35 57//35 59//35
f 44//36 60//36 58//36
f 57//43 58//43 60//43 59//43
f 43//35 59//35 45//35
f 44//36 46//36 60//36
f 59//44 60//44 46//44 45//44
o seg_pipe.010_Cylinder.007
v 0.891317 2.709339 0.000000
v 0.884682 4.433495 0.000000
v 0.891317 2.709339 -0.500000
v 0.884682 4.433495 -0.500000
v 1.244871 2.709339 -0.353553
v 1.238236 4.433495 -0.353553
v 1.391317 2.709339 0.000000
v 1.384682 4.433495 0.000000
v 1.244871 2.709339 0.353554
v 1.238236 4.433495 0.353553
v 0.891317 2.709339 0.500000
v 0.884682 4.433495 0.500000
v 0.537764 2.709339 0.353554
v 0.531129 4.433495 0.353553
v 0.391317 2.709339 0.000000
v 0.384682 4.433495 0.000000
v 0.537764 2.709339 -0.353553
v 0.531129 4.433495 -0.353553
vn 0.0000 -1.0000 0.0000
vn 0.0000 1.0000 0.0000
vn 0.3827 0.0015 -0.9239
vn 0.9239 0.0036 -0.3827
vn 0.9239 0.0036 0.3827
vn 0.3827 0.0015 0.9239
vn -0.3827 -0.0015 0.9239
vn -0.9239 -0.0036 0.3827
vn -0.9239 -0.0036 -0.3827
vn -0.3827 -0.0015 -0.9239
s off
f 61//45 63//45 65//45
f 62//46 66//46 64//46
f 63//47 64//47 66//47 65//47
f 61//45 65//45 67//45
f 62//46 68//46 66//46
f 65//48 66//48 68//48 67//48
f 61//45 67//45 69//45
f 62//46 70//46 68//46
f 67//49 68//49 70//49 69//49
f 61//45 69//45 71//45
f 62//46 72//46 70//46
f 69//50 70//50 72//50 71//50
f 61//45 71//45 73//45
f 62//46 74//46 72//46
f 71//51 72//51 74//51 73//51
f 61//45 73//45 75//45
f 62//46 76//46 74//46
f 73//52 74//52 76//52 75//52
f 61//45 75//45 77//45
f 62//46 78//46 76//46
f 75//53 76//53 78//53 77//53
f 61//45 77//45 63//45
f 62//46 64//46 78//46
f 77//54 78//54 64//54 63//54
o branch.006_Plane.010
v -0.804445 1.396701 1.259392
v -0.430414 1.375078 1.399510
v -0.739312 1.774041 1.143754
v -0.365280 1.752418 1.283872
vn -0.3148 0.3274 0.8909
s off
f 79//55 80//55 82//55 81//55
o branch.005_Plane.009
v 1.986192 3.373368 0.200000
v 2.170416 3.018316 0.200000
v 1.986192 3.373368 -0.200000
v 2.170416 3.018316 -0.200000
vn 0.8876 0.4606 -0.0000
s off
f 83//56 84//56 86//56 85//56
o branch.004_Plane.008
v 0.691148 4.410751 0.189663
v 1.091148 4.410751 0.189663
v 0.691148 4.410751 -0.210337
v 1.091148 4.410751 -0.210337
vn 0.0000 1.0000 0.0000
s off
f 87//57 88//57 90//57 89//57
