# Blender v2.78 (sub 0) OBJ File: 'sketchingparts_v2.blend'
# www.blender.org
o seg_pipe.003_Cylinder.014
v 0.000000 0.000000 0.000000
v 0.000000 4.000000 0.000000
v 0.000000 0.000000 -0.500000
v 0.000000 4.000000 -0.500000
v 0.353553 0.000000 -0.353553
v 0.353553 4.000000 -0.353553
v 0.500000 0.000000 0.000000
v 0.500000 4.000000 0.000000
v 0.353553 0.000000 0.353553
v 0.353553 4.000000 0.353553
v -0.000000 0.000000 0.500000
v -0.000000 4.000000 0.500000
v -0.353553 0.000000 0.353553
v -0.353553 4.000000 0.353553
v -0.500000 0.000000 -0.000000
v -0.500000 4.000000 -0.000000
v -0.353553 0.000000 -0.353553
v -0.353553 4.000000 -0.353553
vn 0.0000 -1.0000 0.0000
vn 0.0000 1.0000 0.0000
vn 0.3827 0.0000 -0.9239
vn 0.9239 0.0000 -0.3827
vn 0.9239 0.0000 0.3827
vn 0.3827 0.0000 0.9239
vn -0.3827 0.0000 0.9239
vn -0.9239 0.0000 0.3827
vn -0.9239 0.0000 -0.3827
vn -0.3827 0.0000 -0.9239
s off
f 1//1 3//1 5//1
f 2//2 6//2 4//2
f 3//3 4//3 6//3 5//3
f 1//1 5//1 7//1
f 2//2 8//2 6//2
f 5//4 6//4 8//4 7//4
f 1//1 7//1 9//1
f 2//2 10//2 8//2
f 7//5 8//5 10//5 9//5
f 1//1 9//1 11//1
f 2//2 12//2 10//2
f 9//6 10//6 12//6 11//6
f 1//1 11//1 13//1
f 2//2 14//2 12//2
f 11//7 12//7 14//7 13//7
f 1//1 13//1 15//1
f 2//2 16//2 14//2
f 13//8 14//8 16//8 15//8
f 1//1 15//1 17//1
f 2//2 18//2 16//2
f 15//9 16//9 18//9 17//9
f 1//1 17//1 3//1
f 2//2 4//2 18//2
f 17//10 18//10 4//10 3//10
o branch.013_Plane.002
v -0.200000 3.968953 0.200000
v 0.200000 3.968953 0.200000
v -0.200000 3.968953 -0.200000
v 0.200000 3.968953 -0.200000
vn 0.0000 1.0000 0.0000
s off
f 19//11 20//11 22//11 21//11
o branch.012_Plane.001
v -1.872255 1.773131 0.145240
v -1.872255 2.173131 0.145240
v -1.872255 1.773131 -0.254760
v -1.872255 2.173131 -0.254760
vn -1.0000 0.0000 0.0000
s off
f 23//12 24//12 26//12 25//12
o branch_Plane
v 1.985199 2.173131 0.145240
v 1.985199 1.773131 0.145240
v 1.985199 2.173131 -0.254760
v 1.985199 1.773131 -0.254760
vn 1.0000 0.0000 0.0000
s off
f 27//13 28//13 30//13 29//13
o seg_pipe.009_Cylinder.013
v -2.000000 2.000000 0.000000
v 2.000000 2.000000 -0.000000
v -2.000000 2.000000 -0.500000
v 2.000000 2.000000 -0.500000
v -2.000000 1.646446 -0.353553
v 2.000000 1.646447 -0.353554
v -2.000000 1.500000 0.000000
v 2.000000 1.500000 -0.000000
v -2.000000 1.646446 0.353554
v 2.000000 1.646447 0.353553
v -2.000000 2.000000 0.500000
v 2.000000 2.000000 0.500000
v -2.000000 2.353553 0.353554
v 2.000000 2.353554 0.353553
v -2.000000 2.500000 0.000000
v 2.000000 2.500000 -0.000000
v -2.000000 2.353553 -0.353553
v 2.000000 2.353554 -0.353554
vn -1.0000 0.0000 0.0000
vn 1.0000 0.0000 -0.0000
vn -0.0000 -0.3827 -0.9239
vn 0.0000 -0.9239 -0.3827
vn 0.0000 -0.9239 0.3827
vn 0.0000 -0.3827 0.9239
vn 0.0000 0.3827 0.9239
vn -0.0000 0.9239 0.3827
vn -0.0000 0.9239 -0.3827
vn -0.0000 0.3827 -0.9239
s off
f 31//14 33//14 35//14
f 32//15 36//15 34//15
f 33//16 34//16 36//16 35//16
f 31//14 35//14 37//14
f 32//15 38//15 36//15
f 35//17 36//17 38//17 37//17
f 31//14 37//14 39//14
f 32//15 40//15 38//15
f 37//18 38//18 40//18 39//18
f 31//14 39//14 41//14
f 32//15 42//15 40//15
f 39//19 40//19 42//19 41//19
f 31//14 41//14 43//14
f 32//15 44//15 42//15
f 41//20 42//20 44//20 43//20
f 31//14 43//14 45//14
f 32//15 46//15 44//15
f 43//21 44//21 46//21 45//21
f 31//14 45//14 47//14
f 32//15 48//15 46//15
f 45//22 46//22 48//22 47//22
f 31//14 47//14 33//14
f 32//15 34//15 48//15
f 47//23 48//23 34//23 33//23
